<?xml version="1.0" encoding="utf-8"?>
<!-- Generator: Adobe Illustrator 26.0.2, SVG Export Plug-In . SVG Version: 6.00 Build 0)  -->
<svg version="1.1" id="Layer_1" xmlns="http://www.w3.org/2000/svg" xmlns:xlink="http://www.w3.org/1999/xlink" x="0px" y="0px"
	 viewBox="0 0 198.4 222.2" style="enable-background:new 0 0 198.4 222.2;" xml:space="preserve">
<style type="text/css">
	.st0{fill:#807757;}
</style>
<g>
	<path class="st0" d="M52.6,34.2L52.6,34.2L52.6,34.2z"/>
	<path class="st0" d="M104.1,0c-0.4,0-1,0.2-2.1,0.9c-1.9,1.2-1.9,2.4-2.8,2.4l-0.6-0.1c-1.1-0.4-2.2-0.8-2.9-0.8l-0.9,0.3
		c-0.5,0.6-2.3,1.6-2.9,1.6l-0.2-0.1c0.3,0.8,0.8,1.4,1.5,1.4l0.3,0l0.4,0c0.7,0,1.3,0.5,1.6,1.3c0.3,1,0.2,1.9,0.2,1.9
		S94.5,9,93.9,9.7l-0.5,0.2c-0.6,0-1-0.7-1.5-1.4c-0.5-0.6-1.1-0.9-1.6-0.9l-0.4,0.1c-0.5,0.2-1.8,1.4-2.3,2.1
		c-0.3,0.5-1.5,2.1-2.4,2.1l-0.7-0.5c-0.8-1.4-1-2.2-1.8-2.2l-0.1,0c-1,0.1-1.2,0.4-2.1,1.2l-1.5,0.6l-1.5-0.3
		c-0.6-0.3-1.1-0.4-1.5-0.4l-0.6,0.2c-0.5,0.4-1.7,1.4-2.5,1.6c-0.8,0.2-1.8,0.7-1.8,0.7s0.5-1.7,1.2-1.7l0.2,0
		c0.6-1.1,1.7-2.5,2.9-2.5l0.4,0c1.9-0.6,4.5-0.8,5.5-0.8c1,0,1.4-0.4,1.7-1l0-0.1l0.1-0.1l0.8-1.2l1.1-0.4l0.4,0l1.1,0.4l1.2,0.3
		l0.4,0c0.7-0.1,1.2-0.9,1.8-1.2c-0.5-0.3-1.1-0.8-1.7-0.8l-0.3,0L87.2,4H87l-0.4,0l-0.7-0.3l-1.2-0.3l-0.3,0
		c-0.4,0-0.9,0.2-1.5,0.7l-1.1,0.6L81,4.3c-0.4-0.5-1.1-1.2-1.7-1.2l-0.8,0.4c-0.7,0.7-1.6,1.9-2.1,1.9L76,5.1l-1.1-0.6
		c-0.5,0-1,0.2-1.7,0.8c-1,0.8-1.9,1.4-2.7,1.4l-0.8-0.3C69,5.6,68,4.8,67.5,4.8l-0.1,0L67,6.7l0.5,1.8v1.3
		c-0.5,0.3-2.1,0.6-1.9,2.3c0.2,1.8-0.3,2.4-0.7,2.5l-0.1,0l-0.6-0.1l-0.8-0.1l-1.1,0.3c-1.2,0.7-4,1.4-4.2,3.2h0l0.8-0.5
		c0.5-0.2,1.1-0.5,2.1-0.5l0.4,0c2.2,0.1,3.8,0.5,5,1.3l0.9,0.3l0.9-0.9c0.4-0.6,0.3-1.7,1.2-2l0.6-0.1c1.1,0,1.9,1.2,1.1,2.3
		l0.3-0.1c0.6,0,0.8,0.8,0.1,1.2L71,19l-1.2-0.2l-0.2,0c-0.7,0.2-1.2,0.9-1.6,1.4c-0.5,0.6-1.1,2-2,2l-0.5-0.1
		c-0.6-0.3-1.2-0.6-1.9-0.8l-1.5-0.5h0l0.1-0.2l-1-0.4c-4.3,0.2-1.2,1.9-4.8,0.8h0c-0.6,0-1.9,0.4-2,1L53,21l-1.8-0.5l-1.7-0.3
		l-0.8,0.1c-1.5,0.5-1.4,1.2-2.4,2l-1.3,0.5l-1.2-0.2l-0.5,0c-1,0-2,0.6-2.4,1.3l0.6,0c0.7,0,1.6,0.2,2.1,0.9c0.7,0.9,1.3,1,1.7,1.5
		l0.8,0.4c0.4,0,0.9-0.2,1.6-0.8c0.7-0.6,1.9-0.9,3-0.9c1.2,0,2.3,0.3,2.8,1.2c0.9-0.2,1.6-0.3,2.2-0.3c1,0,1.5,0.3,1.7,1l-0.2-0.1
		l-1.4,0.9c-0.3-0.4-1.2-0.7-2-0.7l-1.3,0.6l-1.1-0.7L49.9,27c-0.9,0.5-1.8,1.8-2.9,1.8l-0.8-0.2c-0.6-0.3-1.4-0.9-2.2-0.9L43,28
		c-0.9,0.7-2.3,1.8-3.1,1.8l-0.3-0.1c-0.6-0.5-0.6-1.2-0.3-1.6c0.3-0.4,1.6-1.4,2.4-1.4l0.3,0c-0.8-0.4-1.6-0.6-2.3-0.6l-1.4,0.4
		c-0.7,0.5-1.3,1.3-1.9,1.3l-0.2,0c-0.7-0.3-1.2-1.7-2-1.9l-0.2,0l-0.9,0.4l-0.8,0.4L32,26.6c-0.4-0.4-1.1-1.5-2-1.5l-0.9,0.3
		c-1.5,1-0.4,2.3-1,2.7l-0.2,0l-0.9-0.3l-1-0.3l-0.5,0.1c-1,0.5-1.9,2.8-2.3,2.8h-0.1c-0.7,0-3.2,0.3-3.6,2.6l1.5-0.4
		c0.7,0,1.3,0.3,1.6,1c0.5,0.9,0.8,1.5,1.3,1.5l0.5-0.3c0.6-0.6,2.2-2,3.5-2l0.6,0.1c1.4,0.5,0,2,1.5,2.5l0.5,0.1l1.7-0.7l1.5-0.7
		l0.2,0c1.1,0.2,0.7,3.2,1.9,3.8c-1.2-0.6-2-1.1-2.7-1.1l-0.9,0.4l-0.5,0.3l-0.8-0.3L29.9,37l-0.3,0.1c-0.7,0.3-1.5,1.1-2.3,1.1
		l-0.8-0.3l-1.3-0.5c-0.7,0-1.3,0.4-1.6,1c-0.3,0.7-0.6,1.1-0.9,1.1L22,38.9l-1.2-0.7l-0.8,0.1h0l-0.8-1.1c-0.3-0.5-0.8-1.1-1.4-1.1
		l-0.6,0.2c-1.7,0.9-2.3,3.3-2.6,4c-0.3,0.7-1.9,0.2-2.6,1c-0.6,0.8-0.2,2.6,0.2,3.3c0.8-1.5,1.6-1.3,2.4-2c0.4-0.4,1.3-1.3,2.1-1.3
		c0.7,0,1.2,0.6,1.5,2.4l-1.7-0.5l-1.1,0.5c-0.8,0.9-1.4,0.6-1.7,2.1c-0.3,1.5-0.6,2.7-1.7,2.7h-1.1l-0.7,0.1l-0.8-0.3l-1.3-0.9
		l-0.9,0.6c-0.7,1.3-0.3,2.2-0.3,2.2l-0.7,0.2l-0.5-0.2L5,48.7l-0.1,0l-1.1,0.5L3.3,49l-1.4-0.7l-0.5,0.2l-0.4,2.1l0.1,0l0.3,0
		l0.4,0l0.7,0.7c0.2,1.1,0.3,2.2,1.1,2.2l0.2,0l1.4-0.2c0.6,0,1.2,0.2,1.3,1.1l0.3,1.2L6,55.5l-0.8,0.3c-0.6,0.6-1.7,0.8-1.7,1.1
		l1,1.3l1.4,0.4l1.5-0.3c0.4-0.3,1.2-0.5,1.9-0.5h0.3l0.9,0.5l-2.1,1.1l1,0.8l1.4-0.5l0.4-0.1l0.7,0h0.3l0.8,0.1l1.5-0.6
		c1-1,2.3-1.7,3.2-1.7l0.3,0c-0.5-0.8-0.6-2.3,0.5-2.7l0.6-0.1l1.3,0.9c0.3,0.9-0.4,1.5-0.9,2.1l-0.8,0.7L18.2,59l-0.3,0.8l0.6,0.2
		l1.6-0.5l0.8-0.4l0.3,0l0.7,0.1l0.8,0.1l0.4-0.1l1-0.6l0.2,0l0.5,0.2l0.4,0.5l0.2,0l0.3-0.1l0.3,0h0.1l0.6,0.7l-0.2-0.1l-1.2,0.5
		l-1.5,0.7l-1.3,1.6l-0.3-0.1c0,0-1.1-1.2-2-1.2l-0.5,0.1c-1.1,0.6-1.2,0.5-2.1,0.8c-0.9,0.3-2,1.7-1.8,2.3l-0.7-0.1l-1.3,0.8
		c-0.1,0.7-0.4,1.7-0.7,1.7l-0.2-0.1l-0.3-0.5c0,0-0.3-1-1.2-1l-0.2,0l-1.1,0.1h0c-0.1,0-1.1,0-1.3,1.5l-0.2,1.6l-0.1,0l-1.1-0.5
		l-1.1-0.4c-0.6,0-1.1,0.3-1.1,0.9c0.1,0.5,0.9,0.9,2,1c0.8,0.1,1.9,0.5,2.2,1.4c0.2,0.9-1.2,1-1,1.7l0.5,0.4l1.1-0.3l0.4,0
		c1.4,0,0.5,2,2.2,2h0l1.6-0.8l0.9-1.6l0.6-0.4l0.2,1.3l0.4,0.5l0.5-0.2l0.5-0.2h0c0.6,0,0.6,0.7,1.2,0.8l0.9-1
		c0.7-1.4,0.9-3.3,2.2-4.2c0.7-0.5,1.4-0.6,2.2-0.6l0.8,0l0.9,0.1l0.3-0.1l1.1-1.2l1-0.2c0.8,0,1.7,0.3,2.4,0.5l1,0.6l0.3,0.1
		l0.8-0.4l0.8-0.3l0.3,0c0.8,0.1,1.6,0.8,2.1,1.3l-0.3,0.1L34.7,69l-0.9-0.1l-0.6,0c-0.7,0.2-1,1-1.7,1l-0.2,0
		c-0.6-0.1-1.2-0.5-1.8-0.5l-0.5,0.1c-1.6,1.6-1.8,0.6-3.2,1l-0.7,1.6c-0.2-0.6-1.1-0.8-1.7-0.8l-0.2,0c-0.7,0.1-1.4,0.7-1.6,1.4
		l-0.4,1c-0.2,0.8,0.5,1.3,0.5,2.1l-0.8,1.1l-0.2,0c-0.4-0.2-1.1-0.5-1.8-0.6l-0.4,0l-0.7,0.2l-0.1,0.1c-0.7,0.6-0.9,1.9-1.4,2.3
		l-0.6,1.1l-0.6,1l-0.1,0l-1.4-0.9l-0.6-0.8l-1.1-0.3c-0.6,0-1.3,0.2-1.5,1c-0.4,1.3-1,2.4-1.2,2.9c-0.2,0.4-0.8,0.9-1.5,0.9
		l-0.5-0.1c-0.6-0.3-1.9-1.1-2.8-1.1l-0.7,0.3c-0.8,0.8-0.9,1.7-0.8,2.2L3,86.2l-1.9,1l-0.3,1C1,88.4,1.7,88.8,2.7,89
		c0.9,0.2,1.6,0.9,1.5,1.6C4,91.2,3,91.7,2.3,91.7l-0.3,0l-0.5-0.1c-0.6,0-1.3,0.3-1.3,0.8c0,0.7,0.6,1.3,1.2,1.7
		C2,94.4,3,95.1,3.2,95.8l0.4,1.1l0.9-0.5l0.3,0.1l0.8,1l0.4,0.6l0.1,0c0.3-0.1,0.5-1.3,1.2-1.4l0.1,0l1.1,0.9l-0.6,1.5l-1.1,0.7
		l0.2,1.2c0.3,0.3,1.6,0.5,2.1,1.3c0.4,0.6,1.1,1.1,1.6,1.1l0.2,0l1.4-1.1c0.1-0.1,0.8-0.4,1.5-0.4l0.9,0.1c1.1,0.3,2.3,0.6,3,0.8
		l0.2,0c0.6,0,1.2-1,1.1-1.5l-0.8-0.7l-0.1,0l-0.2,0l-1-0.7c-0.4-0.6-0.4-2.2,0.4-2.7l0.8-0.2c0.8,0,1.7,0.4,1.9,1l0.3,0l0.4,0
		l1.1,0c1.1,0,2.1,0.2,2.8,1.1c1,1.4,2.2,2.7,2.2,2.7l1.2-0.1l1.1,0.3l0.9,0.5l0.3-0.1c0.3-0.2,0.8-1.1,1.7-1.3l0.6-0.1
		c0.7,0,1.2,0.3,0.8,0.5c0.4,0.8,0.8,1.3,1.4,1.3l0.3,0c0.8-0.2,1.5-0.5,1.6-1.1c0.1-0.6,0.3-1.3,0.5-1.3c0.2,0,1,0.1,1.4-0.5
		c0.4-0.6-0.2-1.7,0.6-2.2l1.1-0.3l0.8,0.3l0.5,0.3l0.2-0.1c0.2-0.2-0.5-1.9,1.5-2.5l1.3-0.2c0.8,0,0.9,0.4,0.9,0.9
		c0,0.4,0.5,0.8,1.2,0.8l1.6-0.6l1.3-0.5c0.9,0,1.6,0.8,1.8,1.5l-0.2,0.3l-0.3,0l-0.3,0l-0.2,0c-1,0.4-1.3,1.5-1.8,1.5l-0.3-0.1
		l-0.8-0.2c-0.8,0-1.9,0.3-2.3,0.7c-0.5,0.5-1.5,1.6-1.9,2.7l-2.6,0.9l-0.6,1.7c0.2,0,1.5,0.1,2.1,0.7c0.5,0.5,2,1.1,3.3,1.1l1-0.2
		c0.9-0.4,2-0.8,2.9-0.8l0.6,0.1l1.2,0.3l0.7-0.4c0.3-0.7,0.9-1.9,1.9-2.1c1-0.2,2.7-0.2,2.8-0.3c0.1-0.1-0.5-1.3,0-1.9
		c0.6-0.6,2.1-1.6,2.9-1.6h0.1c1-0.4,2.2-0.7,3.1-0.7c0.6,0,1.1,0.1,1.3,0.4c0.6,0.8,0.4,1.6,0.5,1.8l0.1,0c0.3,0,1.7-0.7,2.4-0.9
		l0.8-0.3c0,0,2.1-0.4,2.7-0.5c0.6-0.1,1.7-0.8,1.8-2l0.2-1.2c0,0-0.5-0.8-0.3-1.5c0.2-0.6,1.3-1.5,2.2-1.5l0.5,0.1
		c0.8,0.5,0.4,2.4,1.7,2.8l0.5,0c1.2,0,2.4-0.8,2.8-1.1l1.4-0.4l1,0.5c0.6,0.9,0.8,1.7,0.2,2.5l-0.2,0.2l0,0l-1.2,0.7l-0.2,0
		L79.9,98l-1.3-0.6l-0.1,0L76.9,98l1.1,1.3l0.6,0.1l1.4-0.4l0.2,0l0.2,0l0.9,0.5l0.1,0.2l0.3,0.4l0.3,0c1.3,0.1,3.3,0.5,5.4,2
		c2.5,1.9,3.2,2.9,4.4,3.1c1.2,0.2,2.3,1.8,2.4,6.4c0.1,4.6-0.3,8.7-0.6,10c-0.4,1.1-1,3.2-4.3,3.2l-0.8,0c-3.9-0.3-6.4-1-6.9-1h0
		l-0.8,2.2c-0.3,0.3-1.2,1.2-2.2,1.2l-0.8-0.2c-1.3-0.6-2.3-1.5-2.7-1.9l-0.1,0l-1.1,1.6c-0.3,0.2-1.5,0.9-2.6,0.9h-0.1h-0.4
		c-0.9,0-1.4,0.1-2.2,0.4c-0.7,0.2-1.8,0.8-2.8,0.8l-0.6-0.1c-0.8-0.2-1.3-0.4-1.6-0.4l-0.4,0.2c-0.3,0.4-0.2,1.3-1,1.7l-0.5,0.1
		c-0.9,0-2-0.7-2.8-1.4c-0.7-0.6-1.8-1.1-2.4-1.1l-0.6,0.2c-0.5,0.4-0.9,1.1-1.2,1.9c-0.2,0.5-0.8,0.9-1.5,0.9l-1.2-0.3
		c-1.2-0.7-2.1-1-2.9-1.2l-0.4,0c-0.8,0-1.7,0.3-2.2,1.1l-1.4,1.4c-16,1.5-30.9,3.7-44.4,6.4H0.3L0,138.4l0.4,0.4h0h0
		c30.6-2.5,63.8-3.9,98.7-3.9c34.8,0,68.1,1.4,98.7,3.9h0h0l0.4-0.4L198,138h0c-15.1-3.1-32.1-5.4-50.5-7l-0.4-0.5l-0.8-0.2
		l-1.2,0.4l-0.2,0.1c-0.9-0.1-1.8-0.1-2.7-0.2c-0.3-0.7,0-1,0-1l-0.8-0.3l0,0c-0.1,0-1.7,0.7-3,1.1c-1.6-0.1-3.1-0.2-4.7-0.3l-1-0.8
		l-1-0.4c0,0-2.1,0.5-2.9,0.5h-0.1l-0.7,0v-1.2l-2.5-0.8h-0.5c0,0-2.7,0.6-3.8,0.8l-1.1,0.2l-0.7,0.1l-1.1-0.3l0.9-2l0.4-0.6
		c0,0-1.1,0.2-2.3,0.2c-0.6,0-1.3-0.1-1.7-0.2c-0.9-0.3-2-0.7-3-0.7l-1.2,0.2c-0.6,0.3-1.6,0.7-2.5,0.7c-0.9,0-1.8-0.4-2.1-1.8
		c-0.6-2.7-2.6-11-2.7-13.1c-0.1-2.1,0.2-3.9,1.8-4.8c0.8-0.5,1.7-0.7,2.4-0.7c0.7,0,1.4,0.2,1.8,0.5c0.6,0.4,1.7,0.8,3,0.8
		c0.8,0,1.6-0.1,2.5-0.4l-0.7-1l-0.9-0.7l-0.2,0l-0.2,0L113,104l-0.4-0.1l-0.2,0h-0.2l-0.2-0.1l2.3-1.9c0.6-0.1,1.3-0.3,1.9-0.3
		l0.7,0.1c0.9,0.4,2.9,0.7,3.4,1.6c0.5,0.8,0.3,0.8,0.3,0.8s0.8,0.4,1.8,0.4l1.4-0.4c1.3-0.9,2.9-3.5,5.3-3.5c1.1,0,2.2-0.1,3.3-0.2
		l0.1,0c1.1,0,2.2,0.4,3.2,0.5l0.8,0.1l0.7-0.2l0.8-0.3l0.9-0.1l0.5-0.6l0.3-0.3l-0.3-0.7l-0.4-0.7l-0.8-0.8l-0.3,0.1l-0.7,0.3
		l-0.3-0.1l-0.5-0.2l-0.4,0.1l-0.4,0.6l-0.4,0l-0.4,0.1h0c-1,0-0.3-2.1-1.1-2.1l-0.2,0l-0.9,0.4l-0.2-0.1l-1.1-0.5l-0.2,0h0l0.1-0.5
		l1.2-0.5l0.3,0l0.4,0l1.4-0.2l1.7-0.2c0.9,0,1.8,0.2,2.8,0.8c2.5,1.7,3.4,2.1,4.5,2.3l0.2,0l1.5-0.4l1.4-0.4l0.4,0.1
		c0.8,0.4,1.9,1.2,1.9,2.1c0,0.8-0.7,1.7,0.1,1.7l0.1,0c0.7,0,1.4-0.4,2-0.4l0.9,0.3c0.7,0.6,0.9,1.1,1.5,1.1l0.6-0.1
		c1.1-0.4,1.4-1.8,0.7-1.9c-0.7-0.2-1.9,0-2.2-1.5c-0.2-1.1,0.2-1.9,0.8-1.9l0.8,0.3c1.2,0.8,3.1,3.2,2.8,4.1c1-0.5,1.6-0.9,2.3-0.9
		l1,0.3c0.8,0.5,1.5,1.1,2.2,1.1l0.9-0.4c1.1-1,0.2-1.7,0-2c-0.3-0.3-1.4-1.1-0.8-1.5l0.5-0.2l1.1,0.7l0.4,0.2l0.4-0.1l0.7-0.1
		l0.5,0c1.3,0.2,3,1.5,3,2.4c0.8-0.2,2.5-0.6,3.9-0.6c0.6,0,1.2,0.1,1.6,0.3c0.8,0.5,1.8,0.9,2.5,0.9l0.6-0.1l1.7-0.7h0
		c0.1-1.4-0.2-2.2-0.8-2.7l-0.9-0.9l0.9-0.5l0.3,0.2l0.3,0.2l0.6-0.3l0.2,0l0.8,0.7c0.1,0.3,0.5,1.2,1.2,1.2l0.3-0.1
		c0.9-0.3,0.9-0.4,1.5-0.7l0.6-1.5l-2.2-0.3c-0.2-0.2-0.6-0.8,0-1.5c0.5-0.7,0.3-1.3-0.1-1.5l-0.1,0l-1,0.3l-1.4,0.3l-1-0.3
		c-1.2-0.8-1.9-1.9-2.6-2.3l-0.4-0.1l-0.8,0.4l-0.8-0.1l-1.3,0.2c-0.6,0.2-1.3,0.4-1.9,0.4l-1.1-0.5c-0.5-0.7-0.3-2.4,1.3-2.4
		l0.7,0.1c-0.2-0.4-1-1.4,0.1-2.4c0.6-0.6,1.3-0.8,1.9-0.8l0.9,0.4l-0.4,1.7l0.1,0.2c0,0,0.8-0.7,1.7-0.7l0.7,0.1
		c1.1,0.6,1.3,0.6,1.3,0.6l0.3-0.5c0,0-0.7-0.5-0.3-1.1c0.3-0.5,1-0.9,1.6-0.9l0.8,0.3c0.8,0.6,0.2,1.7,0.2,1.7l0.2,0.3
		c0,0,1.7-0.8,2.8-0.9l0.6,0c0.9,0,1.9,0.2,2.3,0.5l0.4,0.2l0.4-0.3c0.2-0.3,1.1-1.1,1.3-1.9c0.2-0.8-1.3-1.7-1.9-2.5
		c-0.6-0.8-0.3-1.8,0-2.4c0.3-0.5-0.3-1.5-1.3-2c-0.6-0.4-1.2-0.8-1.7-0.8l-0.5,0.3l-1.3,0.9l-0.5-0.2c-0.7-0.4-1.4-1.3-0.2-2
		c1.1-0.7,2-0.6,2.3-1l-0.2-1.1c0,0-1.5-0.8-2.2-0.8l-0.2,0l-1.4,0.8l-0.4,0.1c-0.6,0-1.5-0.2-1.8-1.1c-0.5-1.2-0.3-3.2-0.5-3.8
		c-0.2-0.6-0.8-1.7-1.4-2.2l-1.1-0.4l-0.6,0.2l-1,0.7l-0.3,0l-1.3-0.4l-0.2,0c-0.5,0.2-1,0.8-1.7,1.1l-0.8,0.1
		c-0.8,0-1.9-0.3-2.1-1.3c-0.4-1.3-0.1-2.1,0.3-2.6l0.4-1.5l-0.6-0.7l0.2-1.4l1.5-0.8l1.5,0.2l0.8,1.2l0,1.2l0.3,0.1l0.7-0.2
		l2.2-0.6h0.1c0,0-0.6-0.8,0-1.2c0.3-0.2,1.1-0.3,1.7-0.3c0.8,0,1.5,0.2,1.7,0.7c1.7-0.1,2.4-0.1,2.7-0.4v-1.9l1-0.6l0.5,0.1
		l1.1,0.4l0.3-0.1c0.4-0.2,1.1-0.8,1.2-1.8c0.1-0.9,0.1-1.6,1.2-1.6l0.3,0l0.5,0c1.2,0,2.2-0.4,2.3-0.9c0.2-0.6-0.7-1.7-0.8-2.5
		c-0.1-0.8,0.1-2.3,0.9-3.2c0.8-0.9,1.1-2.3,0.9-3.2c-0.3-0.9-1.2-0.7-2.1-2l-1,1l0.1,1.4l-0.1,0.4c-0.3,0-1-0.7-1.9-0.7l-0.7,0.2
		c-0.8,0.5-1.8,1.4-2.5,1.4l-0.5-0.2c-0.7-0.7-0.8-2.3,0-3.1c0.8-0.8,1.1-1,1.1-1s-1.4-0.9-2.3-0.9h-0.2c-0.6,0.1-1.3,0.5-1.8,0.5
		l-0.7-0.4c-0.6-0.9-1.1-2.2-2.2-2.2h0l-1.3,0.5L172,41l-0.3,0c-0.9-0.1-2-0.5-2.8-0.5l-0.8,0.2c-0.8,0.5-1.3,1.3-1.2,2.2
		c0.1,0.8,0.6,2.2,0.3,2.2l-1.3-1.2l-0.8,0.4l-1.6,0.1l-0.6,0l-1.1-1.7c-0.5-0.6-1.2-2-0.4-2.5l0.7-0.2c0.8,0,1.8,0.4,1.8,0.4
		l0.6-0.6l0.4-1.2c0.5-0.4,1.7-1.1,2.6-1.1l0.5,0.2c0.7,0.5,1.4,0.8,1.6,0.8l0.1,0l0.4-1.7c0.5-0.5,1-0.9,1.1-1.7
		c0.1-0.7-0.2-1.2-0.4-1.2l-0.1,0l-1.3,0.8l-0.4-0.3c-0.4-0.9-1.3-2.2-2-2.6l-0.3-0.1l-1,0.4l-1.1,0.4l-0.4-0.1
		c-0.7-0.3-1.3-0.9-1.9-1.4c-0.4-0.5-0.7-0.8-1.4-0.9l-0.4,0l-0.8,0.2c-0.6,0-1.4-0.2-1.8-0.3l-0.1,0l-1.2-0.1l-0.6,0l-0.6,0l-0.4,0
		l-0.2-0.1l0.3-0.7c0.6-0.6,1.9-1,2.7-1l0.3,0c0.8,0.6,2.5,1.2,3.4,1.1l0.9-0.2l-0.3-1.1l-0.8-0.3l-0.1-1.2c-0.2-0.8-0.4-1.8-1-2.5
		c-0.4-0.6-1.7-1.1-2.5-1.1l-0.7,0.2c0,0-0.9-1.2-2.1-2.2c-0.9-0.7-1.7-1.2-2.4-1.2L152,20l-1.6,1l-0.5-0.5c-0.3-1-0.1-2.5-0.5-3
		l-0.6-0.4l0,0l0,1.2l-1.1,1l-0.5-0.3c-0.4-0.7-0.9-1.5-1.6-2l-0.5-0.2c-0.7,0-1.1,1.2-1.8,1.4l-0.4,0.1L142,18l-0.6-1.3l-1.6-1.1
		l-1.2-0.3l-0.8,0.3l0.9,0.7l-0.4,0.2l-1.1-0.5l-0.9-0.2l-0.6,0.1l-0.6,0.4l-1.1,0.4l-0.2,0l-0.4-0.8l-0.5-1.2l-0.7-0.2l-1.2,0.2
		l-0.6,0l-0.1-0.5l-1.1-0.4l-0.4,0.1l-0.6,0.3l-0.4-0.2l-1.4-0.7l-1-0.1l-1.3,0.2l-1.5,0.5l-0.1,0l-1.2-0.7l-1.4-0.1
		c0.2-1.1,1.4-1.1,2.2-1.2l0.8-0.1l1.1,0.3l0.7,0.2l1.1-0.4l0.9-0.2l0.4,0l0.4,0l0.3,0l0.8-0.8l0.6,0.1c0.8,0.2,1.7,0.2,2.4,0.6
		c0.8,0.5,1.1,1.2,1.6,1.2l0.3,0l0.7-0.5l0.9-1.7l0.7-0.2l1,0.3c0.5,0.3,0.9,1.4,1.7,1.5l0.3,0l0.6,0l0.5-0.1l0.3,0.1
		c0.4,0.2,0.5,1.2,1.3,1.4l0.9,0.2l0.6-0.2c0.5-0.6,0.6-1.1,1.4-1.3l0.5-0.1c1,0.1,2.2,0.2,3,0.8l0,0l-0.5,0.3l-0.7,0.2l-0.6,1.3
		c0,0,0.7-0.4,1.5-0.4c0.7,0,1.5,0.3,2.1,1.3l1.2,0.7l0.3,0l1-0.4l-0.2-0.3l-0.2-0.5c-0.4-1.1-0.7-2.1-1.9-2.5l-1.4-0.8l0-0.1
		l-0.5-1.3l-2-0.8l-0.8,0l-0.9-0.1c-0.3-0.2,0-0.9-0.1-1.7c-0.1-0.8-0.8-2-1.6-2.3c-0.8-0.3-2.6-0.4-2.9-0.7c-0.4,0.6,0,1.1,0,1.5
		L139,7.3c0,0-0.5,0.2-1.2,0.2l-1.8-0.5c-1.3-0.9-2.3-1.7-2.6-3.4c-0.3-1.4-1.1-2.2-1.8-2.2l-0.4,0c-0.6,0.2-1.4,0.5-2.1,0.5
		l-0.8-0.2c-0.9-0.4-1.2-0.9-1.3-1c-0.1,0-0.5,1.2-0.2,2.2c0.3,1,2.5,2.2,2.9,2.7c0.1,0.6-0.4,0.8-0.4,0.8s-1.1-0.6-2.1-0.6L126.2,6
		l-1.2,0.4l-1.3-0.5l-1.3-0.3c-0.8,0-1.8,0.3-2.3,0.9c-0.6,0.7-1.2,1.2-1.6,1.2l-0.4-0.1l-1.5-0.6L116.3,7l-0.4,0.1l-0.3,0l-0.3,0
		l-0.8,0.3c-0.9,0.5-1.9,1.6-2.8,1.6l-0.3,0l-0.7-0.2c-0.3,0-0.5,0.2-1.4,0.8c-1.2,0.7-1.5,1.2-2.2,1.2l-0.4,0
		c-5.8,0.5-3.3-1.7-7.2,0.1l-0.4-0.1c-0.6-0.2-1.1-0.4-1.3-0.4l-0.1,0l2.1-1.7l0.9-0.6l0.8,0.2c0.6,0.3,1.2,0.6,1.7,0.6l0.7-0.6
		c0.3-1,1.5-2.8,2.5-2.8l0.3,0.1c0.8,0.4,1.8,1.2,2.7,1.2l0.9-0.3l1.2-1l0.1-0.1l1.2-0.8c0.8-0.5,1.5-0.9,2.5-1
		c0.6-0.1,1.3-0.3,1.9-0.4l0.5,0l1.4,0.1l0.8,0l0.7,0c0.7-0.1,1.3-0.6,1.7-1.2l-1.8-0.5l-1.3,0.3L117.6,2h-0.1l-1.1-0.5
		c-0.7-0.6-1.5-1.4-2.6-1.4l-1.3,0.4c-1.5,0.9-2.4,1.7-3.7,1.7l-0.4,0c-1.6-0.2-2.1-0.9-3-1.6L104.1,0z M106.7,19l-0.4-0.2l-0.1-0.2
		l0.2-1l1.1-0.8L108,17l0,0.9L106.7,19z M74.5,19.6l-1.1-0.4V19c0.6-1.1,1.8-1.4,2.4-1.6l0.5-0.1l0.4,0.3c0,0.3-0.7,1.5-1.6,1.8
		L74.5,19.6z M99.8,24.3l-0.1-0.1c0-0.1-1.1-2-1.1-3.2c0-1.2,1.2-2.7,2-2.7l1.1-0.7l0.1-0.1l0.1,0.1c1,1.8-0.1,3.2-0.8,4.2l-0.4,0.5
		c-0.6,1-0.8,1.8-0.8,1.8L99.8,24.3L99.8,24.3z M95.5,27.3l-1-1l-0.4-0.5c-1.1-1.3-1.7-3.4-1.9-4.8c-0.1-0.7-0.1-2.2,0.5-2.9
		l0.8-0.5l0.1,0c0.9,0,1.4,1.3,1.6,1.9c0.3,0.8,0.3,1.6,0.3,2.4l0,1l0.2,1.4l0.3,1.7c0,0.6-0.1,1-0.2,1.1L95.5,27.3z M91.9,27.2
		c-0.7,0-2-1-2-1c-0.8-0.7-1.4-1.5-1.6-2.5l-0.1-0.3l0-1.4l0.7-0.4l0.6,0.2l0.7,0.6c0.6,0.9,1.2,2.2,1.7,3.4L92,26l0.3,1L91.9,27.2z
		 M113,30.7l-0.3,0l-0.1-0.1l0-0.9l0-1l-0.3-0.7l-0.5-1.6c0-1.2,0.7-2.4,1.7-3l1.3-0.5l0.8,0.2l0.7,0.1l1.1-0.1l0.2,0.1
		c0,0.1,0.1,0.2-1.3,1.9l-0.2,0.3c-0.4,0.5-0.6,1.2-0.9,1.8l-0.1,0.3l-0.2,0.4C114.7,29,114.1,30.7,113,30.7 M117.4,28l-0.2,0
		l-0.1-0.1c-0.1-1.3,0.7-2.4,1.2-2.9c0.1-0.1,1-1,1.7-1l0.6,0.4l-0.5,1.2l-0.1,0.1l-0.3,0.4C119.1,26.8,118.3,28,117.4,28L117.4,28z
		 M137.2,26.5l-0.5-0.5l1-1.4l0.2,0l0.5,0.4l-0.9,1.4L137.2,26.5L137.2,26.5z M133.5,28.1L133.5,28.1l-0.1-0.1l-0.1-0.4l0-1.7
		l1.3-0.7l0.5,0.2l-0.3,1.5l-0.2,0.2l-0.1,0.2L133.5,28.1L133.5,28.1z M58.3,30.2l0.6-0.1c0.5-0.2,0.8-0.8,0.6-1.8
		c-0.1-0.8-0.9-0.8-1-0.8l-0.2-0.1l0-0.2c0.8-0.8,1.8-1.3,2.7-1.3c1,0,1.8,0.5,2.4,1.2l0.7,0.3h0.5c0.6,0,1.2,0.1,1.8,0.3
		c0.7,0.2,1.7,0.5,2,1.3c0.4,1-1.1,1.1-1.7,1.2l-1.1,0.2c-0.8,0.2-1,0.7-1.2,1.5l-0.2,0.5L63.8,33l-0.5-0.1l-0.4-0.1l-0.2,0
		l-1.6,0.7l-0.2,0c-0.6-0.2,0.2-0.6,0-1l-1.1-0.3h-0.1c-0.9,0-1.5,1-2.4,1.1c-1.1,0.1-1.7,0.9-2.5,1.6l-1.6,0.9l-0.9-0.6l0.2-1
		l-0.3,0l-0.4,0l-0.4,0l-0.3,0l-1.2,0.4c-0.6,0.4-1,1-1.6,1.4l-1.6,1l-0.1-0.2l0.2-2c0.3-0.8,1.1-0.9,1.8-1l0.4-1.3l1-0.9l1.1-0.2
		l0.9-0.6h0l0.6,0.2c0.9,0,1.7-0.9,2.6-1.2l0.5-0.1L57,30L58.3,30.2z M129.5,27l0.9-0.2l0.5-0.1l0.2,0l0.4,0.8
		c0.1,0.7-0.2,1.7-0.6,2.1l-1.1,0.4l-1,0.3c-0.7,0.4-1.6,1.1-2.3,1.9l-0.1,0h-0.1c-0.9,0-1.4,0.7-1.4,0.7l-0.1,0.1h0l-0.4-0.2l0-0.9
		l0.1-0.6c0.2-0.8,0.4-1.9,1.5-3.2c0.7-0.9,1.4-1.3,2.2-1.3l1,0.2l0.1,0L129.5,27z M90.6,31.8l-0.5-0.1l-0.3-0.1
		c-0.7-0.2-1.3-0.6-1.5-1.3l-0.3-2.9l0.2-0.1c0.3,0,0.9,0.4,2,1.2c1.4,0.9,0.8,2.7,0.7,2.9L90.6,31.8z M150.2,29.2l-0.5-0.2l0,0
		l0-0.4l1.7-0.9l0.6,0.3l-0.1,0.5L150.2,29.2z M73.2,31.1c-0.8,0-1.8-0.1-2.2-0.2l-0.3-0.2l0.6-0.7l0.6-0.5c0.5-0.5,1.4-0.7,2-0.7
		l0.3,0l0.3,0.3l-0.3,1.9C74.2,31,74,31.1,73.2,31.1 M120.4,34l-0.2,0c-0.1,0-0.3-0.2-0.2-0.8c0.1-0.8,0.5-1.9,1.2-1.9l0.5,0.2
		l0,1.2C121.4,33.4,120.9,34,120.4,34 M139.7,39.4L139.7,39.4l-0.2-0.1l-0.1-1l-0.1-1.2l0.2-1.1l0.8-0.4l1.3-0.8l0.5,0.4l-0.1,0.2
		c0,0-0.8,0.6-0.7,1.7l0.1,0l0.9,1l-0.1,0.1c-1,0.1-2.2,0.8-2.5,1.2L139.7,39.4z M93.6,39.9L93,39.6c-0.4-0.5-0.4-2.2,0-3.1l0.8-0.6
		l0.3,0.1l0.6,0.7c0.3,0.8,0,2.1-0.5,2.7L93.6,39.9z M38.5,38.5l-0.9-0.1l-0.2-0.2l1.4-1.9l0.3-0.1l1.3,0.7l0.2,0.5
		C40.5,38.1,39.8,38.5,38.5,38.5 M153.8,37.3l1.1-0.5l1.3-0.4l1,0.2l0.5,0.5l-0.5,1.4c-0.5,0.6-1.5,1-1.5,1l-0.2-0.1l-0.8-0.5
		l-0.5-0.1l-1.1,0.5l-0.1,0.1c-0.6,0.4-1.2,0.9-2,1c-0.7,0.1-1.5,0.1-1.7,0.1l-0.8,0.5c-0.8,0.4-1.6,0.9-2.2,0.9h-0.1l-0.5-0.9v-0.7
		l-0.5-0.5l-0.6,0.1l-0.3,0.1l-0.2-0.1c-0.2-0.7,1-2.3,1.9-2.6l1.4-0.3l0.9,0.1l0.1,0l0.3,0.2v1.1l0,0.2l0.2,0l0.6-0.2l1-0.4
		l1.3-0.6l0.8-0.4l0.6,0.2l0.2,0.1L153.8,37.3z M86.4,40.9l-1.6-1.1c-0.4-0.6-0.2-2,0.1-2.3l0.4-0.1l1.6,1.1c0.3,0.6,0,2.1-0.4,2.3
		L86.4,40.9z M135.3,41l-0.4-0.6c-0.1-1,0-1.7,0.4-2.2l0.8-0.5l0.2,0l0.4,1l-1.1,2.2l-0.1,0.1L135.3,41z M81.7,45.8
		c-0.4,0-0.9-0.3-1.6-0.8l-0.4-0.3c-0.9-0.6-2.3-1-3.2-1.2c-1.1-0.2-2.2-0.6-2.4-1.8l0.3-1l0.3-0.6l-0.3-0.7L74,38.6l0.1-0.1h0.1
		l1.4,0.3l0.6,0.2c0.8,0.3,1.5,0.5,2.1,1l0.7,0.3l0.7-0.5c0.4-0.7,0.8-1,1.3-1.1l0.3,0l1.2,1l0,0.5l0.1,0.9l0,0.2l-0.2,0l-0.9-0.2
		l-1.2,0.3c-0.5,0.4-0.2,0.9,0.3,1.6l0.4,0.8c0.2,0.6,0.5,1.2,0.8,1.6l0,0.1l0,0.1l-0.1,0.1L81.7,45.8z M61.1,45.2l-0.8-0.5
		l-0.3-0.5l-0.7-1l-0.8-0.7l-0.4-0.3l-0.3-1.7l2-1.1h0.1l0.6,0.3c0.7,0.7,0.8,2.6,0.8,3.4c0,0.9,0.2,2,0.2,2l0,0.1L61.1,45.2
		L61.1,45.2z M153.8,44l-0.2-1.5v-0.1l0.1-0.1l1.2-0.2c1.9,0,2.7,1.7,2.7,1.8c0,0,0.4,1,0.5,1.6l-0.1,0.1h-0.2l-0.8-0.1
		c-0.8,0-1.7,0.2-2,0.3l-0.5,0.5l-0.8,0.6l-0.2,0l-0.1-0.1c-0.2-0.5-2-1-3.2-1.2c0,0-0.6-0.1-1.4-0.3l-0.1-0.1v-0.1
		c0.6-1.1,2.5-1.1,3.1-1.1C152.7,43.7,153.3,43.8,153.8,44 M72.3,45.6l-1.7-0.7l-0.5-0.8l0.5-1.8l0,0l0.4-0.1c0.7,0,1.3,1.1,1.5,1.8
		l-0.1,1.6L72.3,45.6z M53.8,48.4l-0.5-0.3c-0.4-0.5-0.7-1.6-0.6-2.3c0.1-1,0.7-2,1.3-2.1l0.3,0c0.7,0,1.1,0.7,1.4,1.2l0.2,0.4
		l0.9,0.4l0.7,0l0.1,0h0.1c0.8,0,1.3,0.8,1.7,1.4l0.9,1l0.8,0.8l0,0.1L61,49c-0.4,0.3-1.4,0.5-2.2,0.5l-0.6,0
		c-0.7-0.1-1.3-0.4-2-0.7l-0.5-0.2L55,48.3l-0.5,0L53.8,48.4z M67.7,47l-1.1-0.2l-0.8-0.9l0.2-1.3l1-0.4c0.6,0,1.4,0.3,1.6,0.7
		l0.4,1.6L67.7,47z M41,47L39.8,46l0.1-0.9l0.5-0.3l0.1,0l1.1,1.1l-0.1,0.8L41,47z M122.6,49.7l-0.6-0.6c-0.2-0.8,0.3-2.3,1-2.7
		l0.6-0.2l0.6,0.6c0.2,0.8-0.3,2.3-1.1,2.7L122.6,49.7z M45.9,48.4l0.7-0.1l0.5-0.1l1.3-0.4l1.1-0.3c1,0,1.6,0.8,2.3,1.8l0,0.1
		l-0.2,0.2l-0.1,0l-0.1,0c-0.2,0-0.5,0.1-1.4,1.1l-1,0.5l-1.1-0.3l-0.1,0l-1.4-0.2l-0.6,0l-0.7,0.4l-0.3,0.1c-0.7,0-0.9-1.1-0.9-1.2
		l0.5-1.4l0.1,0l0.2,0l0.4,0.2l0.2,0.1L45.9,48.4z M36.2,50c0.8-0.7,1.2-1.6,2.3-1.6h0.1c1.2,0.1,1.2,0.7,1.2,1
		c1.3,0.1,1.8,1.3,1.5,1.6l-0.8,1.9l-1.2-0.9L38,51.4l-0.4,0c-0.9,0.3-2.1,1.5-2,2.4l-0.8-0.2c-1.1,0-2.3,0.8-3,1.4
		c-0.5,0.4-0.8,0.7-1.4,0.7l-0.3,0l-1.4-0.2l-0.5,0c-0.6,0.1-1.2,0.2-1.8,0.4l-1.1-0.4h-0.1H25h-0.2c-0.6,0-1.9,0-1.8-0.8
		c0-0.6,0.8-1,1.3-1h0l0.7,0.2l0.7,0.2l0.5-0.2l0.3-0.8l0.4-0.1l0.4,0l1.1,0.3l0.4-0.2l-0.7-1.2c-0.7-0.7-0.3-1.8,0.6-2l0.7-0.1
		c0.6,0,1.3,0.2,1.7,0.6l1.6,0.9l0.7-0.3c0.5-0.5,1.7-1.4,2.5-1.4L36.2,50z M98.7,58.7l-0.1-0.1c0,0-0.1-0.3-0.5-1.1l-1.1-1L96,55.8
		c-0.7-0.7-0.5-2.4-0.4-3.5l0-0.4c0.1-0.9-0.1-1.6-0.1-1.6l0-0.1l0.1-0.1l0.1,0c0.8,0,1.8,1.2,2.4,2.2c0.6,1.1,0.9,2.7,1,3.8
		c0.1,1.1-0.3,2.4-0.3,2.4L98.7,58.7z M130.6,54.7c-0.1,0-0.2,0-0.6-0.8c-0.3-0.5-1.1-2.3-0.6-3l0.7-0.5l0.6,0.5
		c0.5,0.9,0.5,3,0,3.8L130.6,54.7z M133.5,56.5l-0.3-0.2c-0.3-0.4-0.1-1.3,0.1-2.3l0.1-0.7c0.2-0.9,0.3-1.9,1.2-2.3l0.7-0.2l0.8,0.4
		l0.2,1.5c-0.3,0.9-1.2,2.7-1.9,3.2L133.5,56.5z M77.7,57.9L76,56.3l-0.5-0.6l-0.7-0.9l-0.3-1.1l0-0.3c-0.1-1,0.3-1.5,0.5-1.6l0.1,0
		l0.6,0.2l0.1,0.3l0.4,0.6l0.6,0.5c0.4,0.5,1,1.5,1.2,2.7l0,0.2l0,1.5L77.7,57.9L77.7,57.9z M77.3,62.4L77.3,62.4l-1.7-0.6L74.8,61
		l-1.5-0.4l-1.5-1.3L70.4,58c-0.5-0.5-1.1-1.4-0.8-2.2l0.8-0.7l0.2-1.2l0.2-0.1l0.1,0.2v0l1.1,0.9l0.5,0.3l0.6,1.3l0.4,1l1.1,0.8
		l0.6,0.4c0.7,0.4,1,0.9,1.4,1.6l0.4,0.6C77.2,61.2,78.2,62.4,77.3,62.4 M139.1,55c0.3-0.1,1.4-0.4,2.3-0.4l0.7,0.1
		c0.7,0.2,1.7,0.2,2.4,0.2l0.6,0l0.1,0l0.1,0.1c-0.1,1.6-1.5,2.4-2.2,2.4l-0.2,0l-0.5-0.1l-0.7-0.1l-0.7,0.2l-0.1,0l-0.5-0.1
		c-1.4,0-4.4,1.6-5.2,2.4l-0.1,0l-0.1,0l-0.5-1.3l0.8-1l1.1-1.1l0.9-1l1.3-0.5L139.1,55z M110,61.5l-0.2-0.1c0,0-0.2-0.7-0.7-2
		c-0.5-1.4,0.2-2.5,1.1-2.9c0.7-0.3,0.8-1.1,0.8-1.1l0.1-0.1l0.2,0.1c1.5,2.8,0,4.3-0.3,4.6l-0.9,1.5L110,61.5z M176,56.4l-0.4-0.4
		l0.2-0.5l0.6-0.3l0.4,0.2l0,0.4l-0.6,0.5L176,56.4z M153.4,59.4c-0.9,0-1.9-0.3-2.3-0.7l-0.1-0.1l0.1-0.1c0.8-0.5,1.6-1.4,2-2.1
		c0.3-0.5,1.3-1.1,2.4-1.1c0.9,0,1.5,0.4,1.8,1.2c0.6,1.5,1.7,1.8,2.8,1.8l1,0l1.2,0c1,0,2.3,0.1,2.3,1.3l0,0.1
		c-0.1,0.1-1.4,1.9-2.6,1.9l-0.4-0.1l-0.9-0.4c-0.9-0.5-2-1-2.7-1l-0.5,0.2l-0.1,0l-0.1,0c-0.5-0.6-1.4-1.1-2.2-1.1l-0.6,0.2
		L153.4,59.4z M171.9,57.3l-0.3-0.1l-0.1-0.3c0-0.5,0.7-1.4,1.4-1.4l0.2,0.2l0,0l0.4,0.9l-1.3,0.5v0L171.9,57.3z M167.9,58l-0.7-0.6
		c0-0.7,0.7-1.6,1.4-1.6l0.2,0l1,0.4L170,57l-1.2,0.9l-0.3,0.1L167.9,58z M94.1,61l-0.9-0.3l-0.7-0.3C91.8,60.2,91,60,91,58.8
		l0.7-2.2l0.6-0.3l0.3,0l1,1.3l0.1,0.3c0.4,0.7,0.8,1.5,0.9,2.1l-0.1,0.8L94.1,61z M104.4,64.4l-0.5-0.5c0.2-2.9-1.3-2.1,0.1-4.9
		l0.4-0.9c0.2-0.7,0.5-1.3,1-1.6l0.2-0.1l0.2,0.1l0.1,0.9v0.1l0.4,1l0.2,0.3l0.4,1.5c-0.1,0.8-0.5,1.2-0.9,1.7l-0.8,1.1l-0.1,0.3
		l-0.3,0.7L104.4,64.4z M29.8,59.3l-0.9-0.5l0.1-0.7l0.5-0.3l1,0.4l0.2,0.1l0.2,0.3l-0.8,0.7L29.8,59.3z M62.4,62.2
		c-0.5,0-1.6-0.2-2.5-1.5l0-0.2l0.2,0l2.7-1l1.1-0.3c0.7,0,1.5,0.2,1.7,0.3l0.6,0.1c0.6,0.2,1.3,0.3,1.8,0.7l0.3,0.3l0.8,0.6
		l0.4,0.2l0.2,0l1,0.9l-1,0.6l-0.2,0l-0.9-0.3l-0.9-0.3l-0.1,0l-0.6,0.1l-0.6,0.1l-0.4,0c-0.8-0.2-1.6-0.5-2.4-0.5l-0.7,0.1
		L62.4,62.2z M88.5,61.1l-0.2-0.2l0,0c-0.9-0.1-0.9-1.4-0.1-1.5v0l0.2-0.2l0.7,0.3l0.3,0.7C89.4,60.7,89.1,61.1,88.5,61.1
		 M55.9,66.8L55.9,66.8c-0.7-0.5-1.4-0.8-1.9-1.1l-0.8-0.4l-0.4-1.2c-0.1-0.7-0.2-1.6-0.8-1.7l-0.1-0.1l0.1-0.2c0,0,0.9-0.8,1.7-0.8
		l0.7,0.4c0.7,0.9,1,2.2,1,2.9l0.4,1.1l0.3,0.9L55.9,66.8L55.9,66.8z M49.8,69c-1.5,0-1.8-1.2-2.1-2l0-0.1c-0.2-0.8-0.5-1.6-0.5-1.6
		l0-0.2l1.1-0.3c0.9,0,1.8,0.4,2.1,1l0,0.1l1.1,0.9h0.2l0.1,0l0.1,0.1c0.4,0.3,1,0.7,1.7,2.2l0,0.1l-0.2,0.2l-0.1-0.1l-1.1-0.2
		l-1.2,0L49.8,69z M120.6,69.6l-0.3-0.1l-0.1-0.8c0.1-0.8,0.5-1.3,0.8-1.9l0.2-0.3c0.4-0.6,0.8-0.7,1.4-0.9l0.3-0.1l1.4-0.5h0.1
		l0.1,0.1c0.2,1.1-0.3,2.4-1.3,3.2l-1.3,0.7l-0.6,0.3L120.6,69.6z M126.8,67.7l-1-0.5l0.5-1.1l1.2-0.3l0.8,0.3l0.2,0.5
		c0,0.6-0.5,1-1.4,1.2L126.8,67.7z M114.7,71.4l-0.3-0.2l0-1.2c0.2-0.6,0.7-1.4,1.2-1.9l1.1-0.6l0.8-0.4c0.6-0.4,1.1-0.8,1.4-1.3
		l0.2-0.1l0.1,0.1c0.4,1,0.1,1.6-0.3,2.4l-0.2,0.4c-0.4,0.8-1.2,1.2-2,1.6l-1.3,0.8L114.7,71.4z M39.6,69c-0.8,0-1.3-0.3-1.4-0.8
		l0-0.3l0.9-0.7c0.8,0,1.9,0.7,2.2,1.1l0,0.2C41,68.8,40.3,69,39.6,69 M154.2,70l-0.7-0.8l0.2-0.6l0.5-0.2l0.5,0.2l0.1,0.7L154.2,70
		z M156.1,72.7l-0.3-0.2l0-0.8c0.3-1,1-2,2-2l0.3,0l0.7,0.5c0.1,0.5-0.7,1.1-1.3,1.6l-0.4,0.3L156.1,72.7z M162.9,73.1l1.2-0.5
		l0.3-0.2c0.7-0.6,1.5-1.3,2.4-1.3l1.2,0.4l1.2,0.7c1.2,0.6,2.4,1.2,1.6,2.9l-0.2,0.1c0,0-1.1-0.3-1.7-0.3l-0.3,0.1l-0.2,0
		c-0.6-0.4-1-0.5-1.3-0.5l-0.2,0.2l-0.1,0.1h-0.1l-1.4-0.3l-1.3,0.4l-0.1,0.3l0,0.1l-0.2,0c-0.6-0.3-2.2-0.9-3.8-0.9
		c-1.3,0-2.2,0.4-2.9,1.1l-0.1,0l-0.1,0l-0.1-0.2c0.3-1.1,1.2-1.6,1.8-1.9l0.5-0.3c0.4-0.3,1.4-0.7,2.1-0.7l0.7,0.2L162.9,73.1z
		 M132.4,77.4l0.6-0.3l0.3-0.1c0.5,0,0.8,0.8,0.9,2l0,0.1l-0.1,0.1l-1.1,0.4c-0.6,0.3-1.4,0.7-2.1,0.7h-0.1h-0.1
		c-0.9,0-1.5,0.5-2.2,1.1l-0.3,0.3c-0.9,0.7-2.1,0.7-2.3,0.7h0l-0.1-0.1c0,0-0.2-1.1,0.5-1.6l0.5-1l0.7-1.3l0.9-0.3l1.2,0.3l0.3,0.1
		l0.1,0l0.8-0.7l0.9-0.7l0.2,0L132.4,77.4z M84.8,83.1c-1.5,0-2.2-1.3-2.8-2.8c-0.6-1.6-3.4-2.3-3.4-2.3L78.6,78v-0.1
		c0,0,0.3-0.6,1-0.6l0.6,0.2l1.3,0.3c0.5,0,1.2-0.1,1.9-0.4l0.5-0.1c1.1,0,2.4,1,2.9,1.8c0.3,0.4,0.6,1,0.9,1.6
		c0.4,0.7,0.8,1.4,1.3,2.2l0,0.1L88.7,83l-0.1,0l-0.8-0.1c-0.5,0-1.3,0.1-1.9,0.1L85,83.1H84.8z M138.6,78.6l1.2-0.7l1.3-0.7
		l0.9,0.4l-0.1,1.5l-0.2,0.9l0,0.6l-0.1,0.1l-0.2,0c-0.1-0.1-0.5-0.3-1.2-0.3c-1.1,0-2.3,0.3-3,0.6l-1.1,0.3l-1-0.4l0-0.7
		c0.7-1.3,1.5-1.8,2.4-1.8l0.9,0.2L138.6,78.6z M75.5,83.3c-0.7,0-1.2-0.2-1.4-0.5c-0.4-0.5-0.7-0.9-1.5-1.3L72,80.8l0.1-0.7
		l0.1-0.1l0.1,0.1l1.1,0.3l2.4-0.2l0.8,0.2l0.7,0.5c0.6,0.4,1.4,0.8,1.8,1.7l0,0.2l-0.2,0l-0.3,0l-1.9,0.4L75.5,83.3z M114.4,84
		l0.8-0.4l0.7-0.4l0.4,0.1l0.1,1.6c-0.1,0.5-0.7,1-1.3,1.4l-0.7,0.4c-0.5,0.2-1.1,0.4-1.4,1.1l-0.1,0.1h0l-0.1,0
		c-0.6-0.5-0.4-1.1-0.3-1.9l0.2-0.7c0.1-0.8,0.7-1.3,1.6-1.3H114.4z M121.2,85.1l1.3-0.4l0.2,0l0,0.1c0,0-0.1,1-0.4,1.8
		c-0.2,0.8-1.1,1.7-1.6,1.7l-0.1,0l-0.7,0l-1.3,0.2l-0.8,0.2l-0.8-0.1l-0.1-0.1l0.1-0.2c0.8-0.4,1.1-1,1.3-1.6l0.5-0.9
		c0.5-0.6,1.3-0.9,1.9-0.9l0.4,0L121.2,85.1z M15.1,87.2L15.1,87.2c-0.9,0-1.6-1.1-2.1-2l0-0.1l0.1-0.1l0.7-0.1
		c0.6-0.1,1.2-0.2,1.8-0.2c1.3,0,2.2,0.4,2.6,1.3l0,0.1l-0.1,0.1l-0.8,0.3C16.7,86.8,15.8,87.2,15.1,87.2 M37.2,88.2l-0.1-0.1
		c0-1.5,0.1-2.1,1.1-2.6c0.8-0.4,1.1-0.7,1.1-0.7l0.2-0.1c0,0,1.3,0.6,2.2,0.6l0.3,0l0.2,0.1l0,0.2L41.9,86l0.5,0.2l0.4-0.1
		c0.2-0.1,1-0.3,1.9-0.3c0.9,0,1.5,0.3,1.8,0.7v0.2l-0.1,0.1l-0.3,0c-0.6,0-2.2,0.1-2.9,0.6c-0.7,0.5-1.5,0.8-2.2,0.8l-0.8-0.1
		L38.8,88c-0.8,0-1.3,0.1-1.5,0.2L37.2,88.2z M163.8,85.8c0.6,0,1.2-0.2,1.6-0.3l0.3-0.1l0.1,0l0.7,1.2l0,0l-0.2,0.2l-0.1,0
		l-0.3-0.2l-1,0.7l-0.9,0.8l-0.1,0l-0.1,0l-0.1-0.1l-0.8-0.3l-0.4,0l-0.2-0.1l0-1.5l0.8-0.4l0.2,0L163.8,85.8z M10.3,90.7l-0.2,0
		l-0.8-0.5l0-0.7l1.3-0.7l1,0.5l-0.1,0.9L10.3,90.7z M28.1,92.7L26,92.2l-0.8-1.5l0.2-0.9l0.3-0.1c0.7,0,2.1,1.4,2.9,2.7l0,0.1
		l-0.1,0.1L28.1,92.7z M39.8,92.2l-0.4-0.1L39.3,92l0-0.3c0.1-0.9,0.1-1.8,2.2-1.8l1,0.1l0.1,0l1,0.5h0h0.1l0.1,0.1l-0.1,0.6
		c-0.3,0.3-0.8,0.5-1.5,0.5l-1,0.2L39.8,92.2z M114.6,91.6c0.6,0,1.1-0.2,1.4-0.4l0.6-0.3c0.5,0,1,0.6,1.1,1.6l0,0l-0.1,0.1h0
		l-0.3,0c-1,0-2.2,1.6-2.8,2.3c-0.3,0.4-0.8,0.6-1.5,0.6c-0.7,0-1.5-0.2-2.1-0.4l-0.3-0.1l-0.2,0c-1.2,0-3.7,1.5-3.7,1.5l-0.1,0
		l-0.1,0l-0.8-1.2l0.9-1.1l0.9-0.8c0.4-0.7,0.9-0.8,1.5-1l1.5-0.7c0.8-0.6,1.4-0.8,1.9-0.8l1,0.3L114.6,91.6z M66.8,94.8
		c-0.9,0-1.8-1-1.9-1.7c0-0.2,0.1-0.7,0.9-0.8h0c0.7,0,1.7,0.6,1.9,1.3c0.1,0.3,0.1,0.7-0.5,1L66.8,94.8z M144.1,94.9l-0.4,0l-1-0.7
		l0.2-1l1.3-0.5l1.5,0.8l0,0.9L144.1,94.9z M25.6,93.8l0.3,0l0.2,0l1.1,0.4l0.1,0h0.2l0.1,0.1c0,1.4-0.4,2.1-1.1,2.1l-0.3,0
		l-0.6-0.2l-1.6-0.3L23.4,96l-0.2,0l-0.1-0.1c0-0.2-0.2-1.9,0.7-2.1l0.5,0l0.7,0L25.6,93.8z M92.6,103.2l-0.1-0.1
		c-0.2-0.5-4.2-3.2-5.4-3.8l-0.5-0.6c-0.1-0.8,0.8-2,1.3-2.5l1-0.5c1.1,0,1.8,1.6,2.4,3l0.7,1.2c0.8,0.9,1.2,2.3,0.8,3.3L92.6,103.2
		z M125,100.7l-0.7-0.3l0-1c0.3-0.5,1.1-1.1,1.7-1.1h0.1l0.9,0.4l0,0.8l-1.6,1.1L125,100.7z"/>
	<path class="st0" d="M20.1,149.1c-3.8,0.2-6.7,0.2-9.6,0.2c-1.7,0-8.2-0.1-10-0.1v0.3c2.5,0.1,3.1,0.2,3.2,0.2
		c0.1,0.1,0.1,0.7,0.1,5.3c0,4,0,6.4,0,9.8c0,5.7-0.1,7.4-0.2,7.6c-0.1,0.1-0.5,0.2-3.6,0.3v0.4c3.6,0,5.1-0.1,9.9-0.1
		c4.1,0,6,0,10.8,0l0.3-0.2c0.1-2.9,0.2-5.8,0.2-8.7l-0.2-0.1l-0.2,0.1c-0.8,3.8-1.9,6.5-2.7,7.4c-0.8,0.8-1.6,1.1-3.1,1.1h-3.6
		c-2.4,0-3.2-0.1-3.3-0.2c-0.1-0.1-0.2-1.1-0.2-7.1c0-1.2,0-3.3,0-4.4c0.8,0,2,0,4,0c1.2,0,1.9,0.2,2.2,0.5c0.4,0.4,0.6,1.2,1.1,4.1
		l0.2,0.1l0.2-0.2c-0.1-2.4-0.1-5.7,0-9.5l-0.2-0.1l-0.2,0.1c-0.3,2.9-0.5,3.2-0.9,3.6c-0.5,0.5-1.8,0.7-3.7,0.7c-0.6,0-1.1,0-1.7,0
		l-0.9,0v-5.6c0-4.3,0-4.7,0.1-4.8c0.1-0.1,0.3-0.1,3.7-0.1c4.2,0,4.6,0.2,5.5,1c0.9,0.9,1.6,2.8,2.5,6.5l0.2,0.1l0.2-0.1
		c0.1-2.3,0.3-5.1,0.4-7.5L20.1,149.1z"/>
	<path class="st0" d="M25.8,151.8l0,0.3c2.4,0.1,2.8,0.1,3,0.2c0.2,0.2,0.2,1.4,0.2,5.1c0,3.6-0.1,8.2-0.1,12.3
		c0,2.4-0.1,2.8-0.1,2.9c-0.1,0.1-0.4,0.1-3.1,0.1l0,0.3c2.2,0,4.5,0,8.4,0c1.4,0,2.7,0,3.8,0c1.7,0,3.2,0,4.8,0.1l0.4-0.3
		c0.1-2,0.3-5.6,0.3-8l-0.1-0.1l-0.2,0.1c-1.1,4.4-1.7,6.1-2.5,6.8c-0.8,0.7-1.7,1-4.8,1c-2.3,0-2.9-0.1-3.1-0.2
		c-0.1-0.1-0.1-0.6-0.1-4.5c0-3.9,0-5.5,0-8.9c0-5.8,0.1-6.6,0.2-6.8c0.1-0.1,0.2-0.1,3.2-0.1v-0.3h-5
		C29.8,151.8,27.3,151.8,25.8,151.8"/>
	<path class="st0" d="M79,149.2c-1.8,0-2,0.1-2,0.2c-1.5,5.1-4.3,12.1-6.4,17.9h0c-2.2-5.8-4.6-11.9-7.2-17.8l-0.5-0.3h-0.2
		c-0.8,0-2.2,0-4.1,0c-0.9,0-1.9,0-3,0v0.3c3.2,0.2,3.5,0.2,3.6,0.4c0.1,0.1,0.1,0.4,0.1,1.3c0,5.1-0.1,9.6-0.2,18.2
		c0,1.4-0.3,2.3-0.7,2.6c-0.3,0.4-0.7,0.4-3.3,0.5v0.3c1.4,0,7.2,0.1,8.4,0.1v-0.3c-2.6-0.3-3.1-0.3-3.3-0.5c-0.2-0.2-0.4-0.7-0.4-3
		c0-1.1,0-10.5,0-17.9h0c2.4,5.1,8,19.2,8.7,21.9l0.3,0.1l0.3-0.2c1.2-3.8,5.4-14.9,7.9-22h0c0,0.4,0,15.8,0,18c0,2.6-0.2,3-0.3,3.1
		c-0.1,0.1-0.4,0.2-3.1,0.3v0.4c0.5,0,4.5,0,5.2,0c2.9,0,5.4,0,5.8,0v-0.3c-2-0.1-2.9-0.1-3.1-0.3c-0.2-0.2-0.3-0.5-0.3-3.3
		c0-3.8-0.1-7.3-0.1-12.2c0-6.7,0-7.1,0.1-7.1c0.1-0.1,0.4-0.2,3.2-0.2l0-0.3C82.1,149.2,80.4,149.2,79,149.2"/>
	<path class="st0" d="M100.1,151.5c-4,0-6.5,1.5-8.5,3.5c-2.2,2.2-3.2,4.7-3.2,7.5c0,3.4,1.4,5.9,3,7.6c2,1.9,4.6,3.4,7.8,3.4
		c3.5,0,6.3-1.6,7.7-3.1c2.4-2.4,3.7-5.2,3.7-8.5c0-2.7-1.1-5.4-2.7-7C106.1,153.1,103.4,151.5,100.1,151.5 M99.3,173
		c-2.4,0-4.5-0.8-5.6-3c-0.7-1.4-1.2-3.2-1.2-6.9c0-4.4,0.4-6.6,1.2-8.2c0.8-1.6,2.7-3.2,5.9-3.2c3,0,4.9,0.9,5.8,2.6
		c0.8,1.6,1.1,4.2,1.1,8c0,3.1-0.5,5.7-1.3,7.3C104.1,171.9,102.2,173,99.3,173"/>
	<path class="st0" d="M114.1,151.8l0,0.3c2.4,0.1,2.8,0.1,3,0.2c0.2,0.2,0.2,1.4,0.2,5.1c0,3.6-0.1,8.2-0.1,12.3
		c0,2.4-0.1,2.8-0.1,2.9c-0.1,0.1-0.4,0.1-3.1,0.1l0,0.3c2.2,0,4.5,0,8.4,0c1.4,0,2.7,0,3.8,0c1.7,0,3.2,0,4.9,0.1l0.4-0.3
		c0.1-2,0.3-5.6,0.3-8l-0.1-0.1l-0.2,0.1c-1.1,4.4-1.7,6.1-2.5,6.8c-0.8,0.7-1.7,1-4.8,1c-2.3,0-2.9-0.1-3.1-0.2
		c-0.1-0.1-0.1-0.6-0.1-4.5c0-3.9,0-5.5,0-8.9c0-5.8,0.1-6.6,0.2-6.8c0.1-0.1,0.2-0.1,3.2-0.1v-0.3h-5
		C118.1,151.8,115.6,151.8,114.1,151.8"/>
	<path class="st0" d="M135.3,151.8l0,0.3c1,0,2.7,0.1,2.7,0.2c0.2,0.2,0.3,1.3,0.3,3.7c0,2.3,0,5.5,0,7.4c0,2.3,0,3.9,0,6.5
		c0,0.9,0,2.4-0.2,2.6c-0.1,0.1-0.5,0.1-3.1,0.3v0.3c2.2,0,3.7-0.1,5-0.1c1.9,0,3,0,5.1,0v-0.3c-2.4,0-2.8-0.1-3-0.2
		c-0.1-0.1-0.2-0.6-0.2-2.7c0-1.9,0-4.1,0-6.2c0-1.8,0-4.1,0-6.6c0-3.8,0.1-4.3,0.3-4.6c0.1-0.1,0.4-0.2,2.5-0.2l0-0.3
		c-0.8,0-1.5,0-2.2,0h-1.9l-1.8,0C137.8,151.8,136.6,151.8,135.3,151.8"/>
	<path class="st0" d="M154.9,151.7c-0.4,0-1.6,0.1-3.6,0.1c-1,0-2.2,0-3.5,0v0.3c1.9,0.1,2.8,0.3,3.2,0.7l0.4,0.6
		c0,6.2,0.2,10.2,0.2,14.6c0,3-0.3,4-0.6,4.3c-0.2,0.2-0.3,0.3-3,0.4v0.3c1.4,0,2.9-0.1,4-0.1c1.7,0,2.3,0,3.9,0.1l0-0.3
		c-2.9-0.2-3.2-0.3-3.3-0.4c-0.2-0.2-0.5-1.1-0.5-4c-0.1-4.5-0.2-10.6-0.2-14.7h0c4.2,5.6,10.1,13.5,14.2,19.9l0.4,0l0.4-0.1
		c0-2.7-0.1-4.3-0.1-7.1c0-2.2,0-4.6,0-6.5c0-6.5,0.2-7.2,0.5-7.4c0.2-0.1,0.4-0.2,2.7-0.4l-0.1-0.3c-1.4,0.1-2.2,0.1-3.2,0.1
		c-1.2,0-3.1-0.1-4.2-0.1l0,0.3c2.3,0.1,2.9,0.2,3.1,0.5c0.4,0.4,0.7,2.5,0.7,7.5c0,1.7,0,5.5-0.1,7.1h0
		c-3.3-4.5-7.4-10.3-10.5-14.7C155.3,151.7,155.2,151.7,154.9,151.7"/>
	<path class="st0" d="M186.5,148.8c-4.5,0-7.3,1.7-9.6,4c-2.5,2.5-3.6,5.3-3.6,8.4c0,3.8,1.5,6.6,3.4,8.5c2.2,2.2,5.2,3.8,8.8,3.8
		c4,0,7.1-1.8,8.7-3.5c2.7-2.7,4.2-5.8,4.2-9.5c0-3.1-1.3-6-3.1-7.9C193.3,150.6,190.2,148.8,186.5,148.8 M185.6,173.1
		c-2.7,0-5.1-0.9-6.3-3.4c-0.8-1.6-1.3-3.6-1.3-7.7c0-5,0.5-7.4,1.4-9.2c0.9-1.9,3.1-3.6,6.7-3.6c3.4,0,5.5,1,6.5,3
		c0.9,1.8,1.3,4.7,1.3,9c0,3.5-0.6,6.4-1.5,8.2C191,171.8,188.8,173.1,185.6,173.1"/>
	<path class="st0" d="M5.2,185.7H0v12.4h0.9V193H5l4,5.1h1.2L6,192.8c2.1-0.3,3.6-1.5,3.6-3.5v0c0-0.9-0.4-1.7-0.9-2.3
		C8,186.2,6.7,185.7,5.2,185.7 M0.9,192.1v-5.6h4.2c2.3,0,3.6,1,3.6,2.7v0c0,1.8-1.5,2.8-3.6,2.8H0.9z"/>
	<polyline class="st0" points="21.7,185.7 12.8,185.7 12.8,198.1 21.8,198.1 21.8,197.3 13.8,197.3 13.8,192.3 20.9,192.3 
		20.9,191.4 13.8,191.4 13.8,186.5 21.7,186.5 	"/>
	<path class="st0" d="M28.4,185.5c-2.3,0-4,1.4-4,3.3v0c0,1.9,1.2,2.9,4.2,3.5c2.8,0.6,3.5,1.3,3.5,2.7v0c0,1.4-1.3,2.5-3.2,2.5
		c-1.8,0-3.1-0.6-4.5-1.8l-0.6,0.7c1.5,1.3,3,2,5,2c2.4,0,4.1-1.4,4.1-3.4v0c0-1.8-1.2-2.8-4.1-3.4c-3-0.6-3.6-1.4-3.6-2.7v0
		c0-1.3,1.2-2.3,3-2.3c1.4,0,2.5,0.4,3.7,1.4l0.6-0.7C31.4,186,30.3,185.5,28.4,185.5"/>
	<rect x="36.2" y="185.7" class="st0" width="0.9" height="12.4"/>
	<path class="st0" d="M45.1,185.7H41v12.4h4.1c3.9,0,6.6-2.7,6.6-6.2v0C51.7,188.4,49,185.7,45.1,185.7 M41.9,197.3v-10.7h3.2
		c3.5,0,5.7,2.4,5.7,5.4v0c0,3-2.2,5.3-5.7,5.3H41.9z"/>
	<polyline class="st0" points="63.7,185.7 54.9,185.7 54.9,198.1 63.8,198.1 63.8,197.3 55.8,197.3 55.8,192.3 62.9,192.3 
		62.9,191.4 55.8,191.4 55.8,186.5 63.7,186.5 	"/>
	<polyline class="st0" points="77.1,185.7 76.2,185.7 76.2,196.5 67.6,185.7 66.7,185.7 66.7,198.1 67.6,198.1 67.6,187.1 
		76.4,198.1 77.1,198.1 	"/>
	<path class="st0" d="M86.5,185.5c-3.6,0-6.2,2.9-6.2,6.4v0c0,3.6,2.6,6.4,6.2,6.4c2.2,0,3.6-0.9,4.9-2.2l-0.6-0.6
		c-1.3,1.2-2.5,1.9-4.3,1.9c-3,0-5.3-2.5-5.3-5.6v0c0-3.1,2.3-5.6,5.2-5.6c1.9,0,3.1,0.8,4.2,1.8l0.7-0.7
		C90,186.3,88.7,185.5,86.5,185.5"/>
	<rect x="94" y="185.7" class="st0" width="0.9" height="12.4"/>
	<path class="st0" d="M104.4,185.6h-0.9l-5.8,12.5h1l1.6-3.5h7.3l1.6,3.5h1 M100.6,193.8l3.3-7.2l3.3,7.2H100.6z"/>
	<polyline class="st0" points="113.7,185.7 112.8,185.7 112.8,198.1 121,198.1 121,197.3 113.7,197.3 	"/>
	<path class="st0" d="M134.5,185.5c-1.8,0-3.1,1.2-3.1,2.8v0c0,1,0.4,1.8,1.4,2.8c-2,0.8-3.2,2-3.2,3.6v0c0,2,1.6,3.5,3.8,3.5
		c1.7,0,3-0.8,4.2-2.2l2.2,2.2l0.7-0.6l-2.3-2.4c0.7-0.9,1.3-2,1.9-3.3l-0.8-0.3c-0.5,1.1-1,2.2-1.6,3l-3.3-3.4c1.9-0.7,3-1.7,3-3.2
		v0C137.3,186.7,136.1,185.5,134.5,185.5 M133.7,190.9c-1.1-1.2-1.4-1.8-1.4-2.6v0c0-1.1,0.9-2,2.2-2c1.1,0,2,0.9,2,2v0
		C136.4,189.4,135.5,190.3,133.7,190.9 M133.4,197.5c-1.7,0-2.9-1.2-2.9-2.7v0c0-1.2,0.9-2.4,2.9-3l3.7,3.8
		C135.9,196.8,134.8,197.5,133.4,197.5"/>
	<path class="st0" d="M155.2,185.5c-3.7,0-6.2,3.1-6.2,6.4v0c0,3.5,2.3,6.4,6.3,6.4c2,0,3.8-0.9,4.9-1.9v-4.8h-5.1v0.9h4.2v3.6
		c-0.9,0.8-2.4,1.4-4,1.4c-3.3,0-5.3-2.4-5.3-5.6v0c0-3,2.1-5.6,5.1-5.6c1.9,0,3,0.6,4,1.5l0.6-0.7
		C158.5,186.1,157.2,185.5,155.2,185.5"/>
	<path class="st0" d="M169.2,185.5c-3.8,0-6.3,3-6.3,6.4v0c0,3.4,2.5,6.4,6.2,6.4c3.8,0,6.3-3,6.3-6.4v0
		C175.5,188.5,173,185.5,169.2,185.5 M169.2,197.5c-3.1,0-5.3-2.5-5.3-5.6v0c0-3.1,2.2-5.6,5.3-5.6c3.1,0,5.3,2.5,5.3,5.6v0
		C174.5,195,172.3,197.5,169.2,197.5"/>
	<polyline class="st0" points="179.5,185.7 178.6,185.7 178.6,198.1 186.8,198.1 186.8,197.3 179.5,197.3 	"/>
	<polyline class="st0" points="198.4,185.7 189.6,185.7 189.6,198.1 190.5,198.1 190.5,192.5 197.6,192.5 197.6,191.6 190.5,191.6 
		190.5,186.5 198.4,186.5 	"/>
	<polyline class="st0" points="94.2,209.6 85.4,209.6 85.4,222 94.3,222 94.3,221.2 86.3,221.2 86.3,216.2 93.4,216.2 93.4,215.3 
		86.3,215.3 86.3,210.5 94.2,210.5 	"/>
	<polyline class="st0" points="126.7,209.6 125.8,209.6 125.8,220.4 117.2,209.6 116.3,209.6 116.3,222 117.2,222 117.2,211 
		126,222 126.7,222 	"/>
	<polyline class="st0" points="72.6,209.6 71.7,209.6 71.7,222 79.9,222 79.9,221.2 72.6,221.2 	"/>
	<path class="st0" d="M105.4,209.4c-3.8,0-6.3,3-6.3,6.4v0c0,3.4,2.5,6.4,6.2,6.4c3.8,0,6.3-3,6.3-6.4v0
		C111.6,212.4,109.1,209.4,105.4,209.4 M105.4,221.4c-3.1,0-5.3-2.5-5.3-5.6v0c0-3.1,2.2-5.6,5.3-5.6c3.1,0,5.3,2.5,5.3,5.6v0
		C110.6,218.9,108.4,221.4,105.4,221.4"/>
	<polygon class="st0" points="105,208.3 105.8,208.3 107.7,206.7 106.7,206.2 	"/>
</g>
<g>
</g>
<g>
</g>
<g>
</g>
<g>
</g>
<g>
</g>
<g>
</g>
</svg>
