<?xml version="1.0" encoding="utf-8"?>
<!-- Generator: Adobe Illustrator 26.0.2, SVG Export Plug-In . SVG Version: 6.00 Build 0)  -->
<svg version="1.1" id="Layer_1" xmlns="http://www.w3.org/2000/svg" xmlns:xlink="http://www.w3.org/1999/xlink" x="0px" y="0px"
	 viewBox="0 0 22.6 26.5" style="enable-background:new 0 0 22.6 26.5;" xml:space="preserve">
<style type="text/css">
	.st0{fill:#9B9DA0;}
</style>
<g id="hCvLKc_00000074426390567182717770000016529837998257340055_">
	<g>
		<path class="st0" d="M19.1,13.8c0.2,1,0.4,1.9,0.7,2.8c0.3,1,0.8,1.9,1.9,2.4c0.7,0.3,1,0.9,1,1.6c0,0.6-0.2,0.9-0.8,0.9
			c-0.2,0-0.4,0-0.6,0c-6.5,0-13.1,0-19.6,0c0,0-0.1,0-0.1,0c-0.5,0-1.2,0.2-1.4-0.6c-0.2-0.6,0.2-1.6,0.8-2c0.9-0.4,1.6-1.1,1.9-2
			c0.2-0.8,0.5-1.6,0.6-2.5c0.2-1.6,0.4-3.3,0.3-5c-0.2-3.9,2.5-7.1,6-7.9c0.1,0,0.2-0.1,0.2-0.1c0.3-0.5,0.5-1,0.8-1.4
			C10.8,0.1,11.1,0,11.4,0c0.7,0,1,0.4,1.2,1.5c0.8,0.3,1.7,0.7,2.7,1.1c-2.6,1.9-3.8,4.3-2.7,7.3C13.7,12.8,16,14,19.1,13.8z"/>
		<path class="st0" d="M7.1,22.7c0.4,0,0.7-0.1,0.9-0.1c2,0,4,0,6,0c0.1,0,0.3,0,0.4,0c0.5,0.1,0.7,0.2,0.5,0.7
			c-0.2,0.6-0.5,1.3-0.9,1.8c-1,1.2-2.3,1.6-3.9,1.3c-1.6-0.4-2.6-1.4-3-3C7.1,23.2,7.1,23,7.1,22.7z"/>
	</g>
</g>
<g>
</g>
<g>
</g>
<g>
</g>
<g>
</g>
<g>
</g>
<g>
</g>
</svg>
