<?xml version="1.0" encoding="utf-8"?>
<!-- Generator: Adobe Illustrator 26.0.2, SVG Export Plug-In . SVG Version: 6.00 Build 0)  -->
<svg version="1.1" id="Layer_1" xmlns="http://www.w3.org/2000/svg" xmlns:xlink="http://www.w3.org/1999/xlink" x="0px" y="0px"
	 viewBox="0 0 22.6 26.5" style="enable-background:new 0 0 22.6 26.5;" xml:space="preserve">
<style type="text/css">
	.st0{fill:#9B9DA0;}
</style>
<g>
	<path class="st0" d="M14.1,22.6C14.1,22.6,14.1,22.6,14.1,22.6c-1,0-1.9,0-2.8,0c-0.9,0-1.8,0-2.7,0c0,0,0,0-0.1,0
		c-0.2,0-0.3,0-0.5,0c-0.3,0-0.5,0-0.9,0.1c0,0.3,0,0.5,0.1,0.7c0.4,1.6,1.4,2.6,3,3c0.4,0.1,0.8,0.1,1.1,0.1c0.4,0,0.7,0,1.1-0.1
		c1.6-0.4,2.6-1.4,3-3c0-0.2,0-0.4,0.1-0.7c-0.4,0-0.6-0.1-0.9-0.1C14.4,22.6,14.3,22.6,14.1,22.6z"/>
	<path class="st0" d="M22.6,20.9c0,0,0-0.1,0-0.1c0,0,0,0,0-0.1s0,0,0-0.1c0-0.1,0-0.2,0-0.3c-0.1-0.4-0.2-0.8-0.6-1
		c-0.1-0.1-0.2-0.1-0.3-0.2c0,0-0.1,0-0.1-0.1c-0.2-0.1-0.4-0.2-0.6-0.4c0,0-0.1-0.1-0.1-0.1c-0.6-0.5-0.9-1.1-1.1-1.9
		c-0.2-0.7-0.3-1.4-0.5-2.1c-0.2-1.6-0.4-3.3-0.3-4.9c0.1-3.2-1.6-5.9-4.2-7.2c0,0,0,0,0,0c0,0-0.1,0-0.1-0.1
		c-0.4-0.2-0.9-0.4-1.3-0.5l0,0c-0.2-0.1-0.5-0.2-0.7-0.3C12.4,0.4,12.1,0,11.4,0c-0.3,0-0.6,0-0.8,0.2c-0.3,0.4-0.5,0.9-0.8,1.4
		c0,0-0.1,0-0.2,0.1c-3.5,0.8-6.2,4-6,7.9c0.1,1.6-0.1,3.3-0.3,4.9C3.2,15.3,3,16,2.9,16.7c-0.2,0.8-0.6,1.4-1.1,1.9
		c0,0-0.1,0.1-0.1,0.1C1.4,18.8,1.2,18.9,1,19c0,0-0.1,0-0.1,0.1c-0.1,0-0.2,0.1-0.3,0.2c-0.3,0.3-0.5,0.6-0.6,1c0,0.1,0,0.2,0,0.3
		c0,0,0,0,0,0.1s0,0,0,0.1c0,0,0,0.1,0,0.1c0,0.3,0.1,0.5,0.3,0.6c0,0,0.1,0,0.1,0.1c0,0,0,0,0,0c0.2,0.1,0.5,0.1,0.7,0.1
		c0.1,0,0.2,0,0.2,0c0,0,0,0,0.1,0h0c0,0,0.1,0,0.1,0c3.2,0,6.5,0,9.7,0s6.5,0,9.7,0c0,0,0.1,0,0.1,0h0c0,0,0,0,0.1,0
		c0.1,0,0.2,0,0.2,0c0.3,0,0.5,0,0.7-0.1c0,0,0,0,0,0c0,0,0.1,0,0.1-0.1C22.5,21.3,22.6,21.1,22.6,20.9z"/>
</g>
</svg>
