<?xml version="1.0" encoding="utf-8"?>
<!-- Generator: Adobe Illustrator 26.0.3, SVG Export Plug-In . SVG Version: 6.00 Build 0)  -->
<svg version="1.1" id="Capa_1" xmlns="http://www.w3.org/2000/svg" xmlns:xlink="http://www.w3.org/1999/xlink" x="0px" y="0px"
	 viewBox="0 0 425.2 425.2" style="enable-background:new 0 0 425.2 425.2;" xml:space="preserve">
<style type="text/css">
	.st0{fill:#110D0B;}
	.st1{fill:#F8BB92;}
	.st2{fill:#F1AD81;}
	.st3{fill:none;}
	.st4{fill:#FFFFFF;}
	.st5{fill:#3173A6;}
	.st6{fill:#04546C;}
	.st7{fill:#714C38;}
</style>
<g>
	<path class="st0" d="M334.34,283.34"/>
	<path class="st1" d="M256.35,328.93c0,0-4.6-13.08-4.45-20.61c-11.26,8.25-24.25,12.97-38.08,12.97
		c-13.84,0-26.82-4.72-38.09-12.97c0.16,7.61-1.18,15.17-4.52,20.76l-26.37,49.4h136.84L256.35,328.93z"/>
	<path class="st1" d="M253.56,296.54c12.29-11.12,21.49-27.18,27.43-45.2c3.6,4.94,9.06-0.04,9.72-4.65
		c-0.06-7.07,13.07-39.12-1.76-37.89c0,0-0.07,0.15-0.19,0.39c10.08-136.36-160.04-136.18-149.86,0.06
		c-0.14-0.28-0.22-0.45-0.22-0.45c-14.84-1.19-1.7,30.76-1.76,37.89c0.67,4.62,6.14,9.61,9.74,4.63
		c5.94,18.03,15.15,34.11,27.44,45.23c11.64,9.02,25.22,14.2,39.73,14.2C228.34,310.75,241.92,305.56,253.56,296.54z"/>
	<path class="st2" d="M251.91,308.32c0.08-3.92,0.56-7.85,1.37-11.51c0.1-0.09,0.19-0.18,0.28-0.26
		c-11.64,9.02-25.22,14.2-39.74,14.2c-14.51,0-28.1-5.18-39.73-14.2c0.09,0.08,0.18,0.18,0.28,0.26c0.81,3.67,1.28,7.59,1.37,11.51
		c11.27,8.25,24.25,12.97,38.09,12.97C227.66,321.29,240.64,316.57,251.91,308.32z"/>
	<path class="st3" d="M139.04,213.98c-0.01-0.15-0.01-0.29-0.02-0.44h-0.2C138.83,213.54,138.91,213.7,139.04,213.98z"/>
	<path class="st1" d="M285.81,213.54c0,0-0.07,0.14-0.19,0.39l3.58,0.02C287.49,213.22,285.81,213.54,285.81,213.54z"/>
	<path class="st3" d="M138.83,213.54c0,0,0.08,0.16,0.21,0.44c-0.01-0.15-0.01-0.29-0.02-0.44H138.83z"/>
	<path class="st4" d="M361.34,366.59c-13.4-22.01-53.13-25.9-78.72-26.48c-43.67,37.3-94.73,37.34-138.43,0.02
		c-25.61,0.66-64.55,4.72-77.79,26.46c-15.82,25.97-24.29,58.43-24.29,58.43h343.51C385.63,425.02,377.15,392.56,361.34,366.59z"/>
	<path class="st5" d="M361.34,366.59c-15.82-25.97-68.32-26.72-90.94-26.56c-3.93,0-6.32,11.02-8.97,9.2l-47.47,75.79l-47.56-75.79
		c-2.65,1.82-5.12-9.21-9.07-9.2c-22.62-0.15-75.12,0.59-90.94,26.56c-15.81,25.97-24.29,58.43-24.29,58.43h343.51
		C385.63,425.02,377.15,392.56,361.34,366.59z"/>
	<polygon class="st6" points="169.7,330.77 141.93,358.8 155.81,365.64 138.63,378.29 213.97,425.02 166.4,349.23 	"/>
	<polygon class="st6" points="258.14,330.77 285.91,358.8 272.02,365.64 289.2,378.29 213.86,425.02 261.43,349.23 	"/>
	<path class="st7" d="M290.31,139.76c0,0,5.49-61.63-80.91-54.73c-86.41,6.9-108.95,83.25-110.79,148.1
		c-0.81,28.45,0.24,49.99,1.68,65.21c2.46,26.08,22.05,47.57,47.93,51.67c9.35,1.48,20.36,1.75,33.18-0.06c0,0,7.22-0.15-6.97-54.39
		c0,0-10.61-9.05-18.14-23.7c0,0,0,0,0,0c2.32-13.11,5.79-38.55,5.79-73.22c0-51.97,29.9-61.63,56.57-59.33
		c26.68,2.3,60.64,1.73,63.43,84.57l5.68-14.6c0,0,6.86-2.72,7.21,7.94c0.35,10.66-3.65,18.21-3.87,21.76
		c-0.22,3.55-3.14,18.66-11.01,11.88c0,0-7.91,28.18-27.12,44.71c0,0-15.01,50.71-7.19,53.47c7.82,2.76,58.41,14.19,74.05-29.01
		C335.48,276.81,324.26,173.79,290.31,139.76z"/>
</g>
</svg>
