<?xml version="1.0" encoding="utf-8"?>
<!-- Generator: Adobe Illustrator 26.0.3, SVG Export Plug-In . SVG Version: 6.00 Build 0)  -->
<svg version="1.1" id="Capa_1" xmlns="http://www.w3.org/2000/svg" xmlns:xlink="http://www.w3.org/1999/xlink" x="0px" y="0px"
	 viewBox="0 0 425.2 425.2" style="enable-background:new 0 0 425.2 425.2;" xml:space="preserve">
<style type="text/css">
	.st0{fill:#110D0B;}
	.st1{fill:none;}
	.st2{fill:#F8BB92;}
	.st3{fill:#E5E4E4;}
	.st4{fill:#EFEDED;}
</style>
<g>
	<path class="st0" d="M346.7,273.49"/>
	<path class="st1" d="M137.57,199.21c-0.01-0.16-0.01-0.31-0.02-0.47h-0.21C137.34,198.74,137.42,198.91,137.57,199.21z"/>
	<path class="st2" d="M294.73,198.74c0,0-0.08,0.15-0.2,0.41l3.83,0.02C296.53,198.4,294.73,198.74,294.73,198.74z"/>
	<path class="st1" d="M137.34,198.74c0,0,0.09,0.18,0.23,0.47c-0.01-0.16-0.01-0.31-0.02-0.47H137.34z"/>
	<path class="st3" d="M363.61,362.63c-13.24-23.56-52.52-27.73-77.8-28.36c-43.17,39.94-93.63,39.98-136.82,0.02
		c-25.31,0.7-63.8,5.05-76.88,28.33c-15.63,27.81-24,62.57-24,62.57h339.52C387.61,425.2,379.24,390.44,363.61,362.63z"/>
	<path class="st4" d="M216.8,90.56c43.38,0,78.68,48.49,78.68,108.1c0,59.6-35.29,108.1-78.68,108.1s-78.68-48.49-78.68-108.1
		C138.13,139.06,173.42,90.56,216.8,90.56z"/>
</g>
</svg>
