<?xml version="1.0" encoding="utf-8"?>
<!-- Generator: Adobe Illustrator 26.0.2, SVG Export Plug-In . SVG Version: 6.00 Build 0)  -->
<svg version="1.1" id="Layer_1" xmlns="http://www.w3.org/2000/svg" xmlns:xlink="http://www.w3.org/1999/xlink" x="0px" y="0px"
	 viewBox="0 0 78.7 74.4" style="enable-background:new 0 0 78.7 74.4;" xml:space="preserve">
<style type="text/css">
	.st0{fill:#9B9DA0;}
</style>
<g>
	<path class="st0" d="M31.9,24c1.8,0,3.5,0,5.3,0c0.1,0.8,0.1,1.5,0.2,2.2c0.3,3.7,0.6,7.3,0.9,11c0.3,3.9,0.6,7.7,0.9,11.6
		c0.1,1.5,0.2,3,0.4,4.5c0,0.6,0,0.8-0.6,1c-1.3,0.7-2.6,1.4-3.9,2c-0.4,0.2-0.7,0.2-1,0c-1.3-0.7-2.7-1.4-4-2.1
		c-0.4-0.2-0.6-0.5-0.5-0.9c0.3-4.2,0.7-8.4,1-12.5c0.3-3.5,0.6-7.1,0.8-10.6c0.2-2,0.3-4.1,0.5-6.1C31.9,24.1,31.9,24.1,31.9,24z"
		/>
	<path class="st0" d="M39.4,26.7c0.6,0.8,1.2,1.6,1.9,2.3c2.6,3.3,5.2,6.5,7.8,9.8c0.2,0.2,0.2,0.4,0.1,0.6
		c-0.4,1.2-0.8,2.4-1.2,3.6c-0.1,0.2-0.2,0.3-0.4,0.3c-1.3,0-2.6,0-3.9,0c-0.2,0-0.4-0.1-0.5-0.3c-0.9-1.4-1.8-2.8-2.6-4.2
		c-0.1-0.1-0.1-0.3-0.1-0.4c-0.3-3.7-0.6-7.5-0.9-11.2C39.4,27.1,39.4,26.9,39.4,26.7z"/>
	<path class="st0" d="M34.6,22.1c-0.7,0-1.5,0-2.2,0c-0.2,0-0.3-0.1-0.4-0.3c-0.3-1-0.6-1.9-1-2.8c-0.2-0.5-0.1-0.7,0.4-0.8
		c2.1-0.4,4.2-0.4,6.3,0c0.5,0.1,0.6,0.3,0.4,0.8c-0.3,0.9-0.6,1.9-1,2.8c-0.1,0.2-0.2,0.3-0.4,0.3C36,22.1,35.3,22.1,34.6,22.1z"/>
</g>
<g>
</g>
<g>
</g>
<g>
</g>
<g>
</g>
<g>
</g>
<g>
</g>
</svg>
