<?xml version="1.0" encoding="utf-8"?>
<!-- Generator: Adobe Illustrator 26.0.2, SVG Export Plug-In . SVG Version: 6.00 Build 0)  -->
<svg version="1.1" id="Layer_1" xmlns="http://www.w3.org/2000/svg" xmlns:xlink="http://www.w3.org/1999/xlink" x="0px" y="0px"
	 viewBox="0 0 78.7 74.4" style="enable-background:new 0 0 78.7 74.4;" xml:space="preserve">
<style type="text/css">
	.st0{fill:#9B9DA0;}
</style>
<g>
	<path class="st0" d="M56.2,31.9c0,0.3-0.1,0.7-0.1,1c-0.2,1.3-0.6,2.5-1.1,3.7c-1,2.3-2.4,4.3-3.9,6.2c-2,2.4-4.2,4.6-6.6,6.6
		c-1.1,0.9-2.2,1.8-3.3,2.7c-1,0.8-2.3,0.9-3.3,0.2c-0.1,0-0.1-0.1-0.2-0.2c0.1-0.1,0.2-0.1,0.2-0.2c2.7-2.7,5.3-5.3,8-8
		c0.6-0.6,0.7-1.3,0.2-1.9c-0.5-0.7-1.5-0.8-2.1-0.2c-0.5,0.5-1,1-1.5,1.5c-0.4,0.4-0.8,0.8-1.1,1.2c-0.3-0.3-0.5-0.6-0.9-0.9
		c0,0,0.1-0.1,0.2-0.1c1.7-1.7,3.5-3.5,5.2-5.2c0.6-0.6,0.6-1.6-0.1-2.1c-0.5-0.4-1.3-0.4-1.8,0c-0.1,0.1-0.2,0.2-0.2,0.2
		c-1.7,1.7-3.4,3.4-5.1,5.1c-0.1,0.1-0.1,0.1-0.1,0.2c-0.3-0.3-0.6-0.6-0.8-0.9c0.5-0.5,1.1-1.1,1.7-1.7c1.7-1.7,3.3-3.3,5-5
		c0.4-0.4,0.6-0.9,0.4-1.5c-0.3-1-1.6-1.3-2.4-0.5c-0.7,0.7-1.4,1.4-2.1,2.1c-1.6,1.6-3.2,3.2-4.7,4.7c-0.3-0.3-0.5-0.5-0.8-0.8
		c0.4-0.4,0.8-0.8,1.3-1.3c1.4-1.4,2.8-2.8,4.2-4.2c0.7-0.7,0.5-1.9-0.4-2.3c-0.5-0.2-1.1-0.1-1.6,0.3c-0.9,0.9-1.8,1.8-2.7,2.7
		c-2,2-3.9,3.9-5.9,5.9c-0.1,0.1-0.1,0.1-0.2,0.2c0-0.1,0-0.2,0-0.3c0-1.6,0-3.1,0-4.7c0-0.9-0.6-1.5-1.5-1.5c-0.4,0-0.9,0-1.3,0
		c0,2.8,0,5.6,0,8.4c0,0,0,0,0,0c-0.1-0.2-0.3-0.4-0.4-0.6c-1.1-1.6-2.1-3.2-2.8-5c-0.7-1.8-1.1-3.7-1-5.6c0.1-1.8,0.8-3.5,1.9-4.9
		c1.5-1.9,3.4-3,5.8-3.4c0.3-0.1,0.7-0.1,1-0.1c0.1,0,0.2,0,0.3,0c0.1,0,0.3,0,0.4,0c0.1,0,0.2,0,0.2,0c0.3,0,0.7,0,1,0.1
		c1.6,0.3,3,1,4.3,2c0.7,0.6,1.4,1.3,1.9,2c1-1.3,2.2-2.4,3.6-3.2c1.1-0.6,2.3-1,3.6-1c0.1,0,0.2,0,0.2,0c0.1,0,0.3,0,0.4,0
		c0.1,0,0.2,0,0.2,0c0.3,0,0.7,0,1,0.1c1.9,0.3,3.5,1.1,4.9,2.5c1.3,1.3,2.2,2.8,2.6,4.6c0.1,0.4,0.1,0.8,0.2,1.2
		C56.2,30.7,56.2,31.3,56.2,31.9z"/>
</g>
<g>
</g>
<g>
</g>
<g>
</g>
<g>
</g>
<g>
</g>
<g>
</g>
</svg>
