<?xml version="1.0" encoding="utf-8"?>
<!-- Generator: Adobe Illustrator 26.0.2, SVG Export Plug-In . SVG Version: 6.00 Build 0)  -->
<svg version="1.1" id="Layer_1" xmlns="http://www.w3.org/2000/svg" xmlns:xlink="http://www.w3.org/1999/xlink" x="0px" y="0px"
	 viewBox="0 0 78.7 74.4" style="enable-background:new 0 0 78.7 74.4;" xml:space="preserve">
<style type="text/css">
	.st0{fill:#9B9DA0;}
</style>
<g>
	<path class="st0" d="M48.6,47.9c-3.5,2.2-7.7,1.3-10.1-1.6c-2.3-2.9-2.3-7,0-9.7c2.4-2.9,6.5-3.6,9.7-1.7c3.1,1.8,4.9,5.9,3.1,9.9
		c0.1,0.1,0.3,0.2,0.4,0.4c0.1,0.2,0.2,0.3,0.2,0.5c0,0.2,0.1,0.2,0.2,0.3c2.4,1.7,4.8,3.5,7.2,5.2c0.8,0.6,1.2,1.4,1.2,2.4
		c-0.1,1.2-1.2,2.3-2.3,2.3C57.3,56,56.6,55.7,56,55c-0.6-0.6-1.2-1.2-1.7-1.9c-1.4-1.5-2.9-3.1-4.3-4.6c-0.1-0.1-0.2-0.2-0.4-0.2
		c-0.2,0-0.4-0.1-0.6-0.2C48.8,48.1,48.7,48,48.6,47.9z M49.6,41.4c0-2.9-2.3-5.2-5.2-5.2c-2.8,0-5.2,2.3-5.1,5.2
		c0,2.8,2.3,5.2,5.2,5.1C47.3,46.6,49.6,44.3,49.6,41.4z M58.2,52.3c-0.7,0-1.2,0.6-1.2,1.2c0,0.7,0.6,1.2,1.2,1.2
		c0.7,0,1.3-0.6,1.3-1.2C59.5,52.9,58.9,52.3,58.2,52.3z"/>
	<path class="st0" d="M34.1,39.1c0,1.4,0,2.8,0,4.2c0,1.4,0,2.7,0,4.1c0,0.5,0,0.6-0.6,0.6c-1.9,0-3.9,0-5.8,0
		c-0.4,0-0.5-0.1-0.5-0.5c0-4.3,0-8.6,0-12.9c0-1.2,0-2.5,0-3.7c0-0.1,0-0.2,0-0.3c0-0.3,0.1-0.4,0.4-0.4c1.3,0,2.5,0,3.8,0
		c0.7,0,1.5,0,2.2,0c0.4,0,0.5,0.1,0.5,0.5C34.1,33.5,34.1,36.3,34.1,39.1C34.1,39.1,34.1,39.1,34.1,39.1z"/>
	<path class="st0" d="M25,41.9c0,1.9,0,3.7,0,5.6c0,0.4-0.1,0.4-0.4,0.4c-2,0-4,0-6,0c-0.3,0-0.4-0.1-0.4-0.4c0-3.7,0-7.5,0-11.2
		c0-0.4,0.1-0.4,0.4-0.4c2,0,4,0,6,0c0.3,0,0.4,0.1,0.4,0.4C25,38.2,25,40,25,41.9z"/>
	<path class="st0" d="M43.2,32c-2.9,0.4-5.2,1.9-6.9,4.4c0-0.1,0-0.2,0-0.3c0-3,0-6,0-9c0-0.5,0-1.1,0-1.6c0-0.2,0.1-0.4,0.4-0.4
		c0.1,0,0.3,0,0.4,0c1.8,0,3.7,0,5.5,0c0.5,0,0.6,0.1,0.6,0.6c0,2,0,4,0,5.9C43.2,31.7,43.2,31.8,43.2,32z"/>
	<path class="st0" d="M38.4,19.9c0.8,0,0.8,0,1-0.7c0.1-0.2,0.1-0.4,0.2-0.6c0-0.1,0.1-0.2,0.2-0.2c0.1,0,0.2,0.1,0.2,0.2
		c0.1,0.3,0.2,0.6,0.3,1c0.1,0.3,0.2,0.4,0.5,0.4c0.3,0,0.6,0,1,0c0.1,0,0.2,0.1,0.3,0.1c-0.1,0.1-0.1,0.2-0.2,0.3
		c-0.3,0.2-0.6,0.4-0.9,0.7c-0.1,0.1-0.2,0.2-0.1,0.4c0.1,0.4,0.2,0.7,0.4,1.1c0,0.1,0,0.2,0,0.3c-0.1,0-0.2,0-0.2-0.1
		c-0.3-0.2-0.6-0.4-0.9-0.7c-0.1-0.1-0.2-0.1-0.4,0c-0.3,0.2-0.5,0.4-0.8,0.6c-0.1,0.1-0.2,0.1-0.4,0.1c0-0.1,0-0.3,0-0.4
		c0.1-0.3,0.2-0.6,0.3-1c0.1-0.2,0-0.3-0.1-0.4c-0.3-0.2-0.6-0.4-0.8-0.6c-0.1-0.1-0.1-0.2-0.2-0.3c0.1,0,0.2-0.1,0.3-0.1
		C38.1,19.9,38.3,19.9,38.4,19.9z"/>
	<path class="st0" d="M20.2,30.6c0.8,0,0.8,0,1.1-0.8c0.1-0.2,0.1-0.4,0.2-0.6c0-0.1,0.1-0.1,0.2-0.1c0.1,0,0.1,0.1,0.2,0.1
		c0.1,0.4,0.3,0.7,0.4,1.1c0.1,0.2,0.1,0.2,0.3,0.2c0.4,0,0.7,0,1.1,0c0.1,0,0.2,0.1,0.3,0.1c0,0.1-0.1,0.2-0.1,0.2
		c-0.3,0.2-0.6,0.5-0.9,0.7c-0.1,0.1-0.2,0.2-0.1,0.3c0.1,0.4,0.2,0.7,0.4,1.1c0,0.1,0,0.2,0,0.3c-0.1,0-0.2,0-0.3-0.1
		c-0.3-0.2-0.6-0.4-0.9-0.7c-0.1-0.1-0.2-0.1-0.4,0c-0.3,0.2-0.6,0.5-0.9,0.7c-0.1,0.1-0.2,0-0.3,0.1c0-0.1,0-0.2,0-0.3
		c0.1-0.4,0.2-0.7,0.3-1.1c0.1-0.2,0-0.3-0.1-0.4c-0.3-0.2-0.6-0.4-0.9-0.7c-0.1-0.1-0.1-0.2-0.1-0.2c0.1,0,0.2-0.1,0.3-0.1
		C19.8,30.5,20,30.6,20.2,30.6z"/>
	<path class="st0" d="M29.3,25.3c0.2,0,0.4,0,0.6,0c0.2,0,0.2-0.1,0.3-0.2c0.1-0.4,0.2-0.7,0.4-1.1c0-0.1,0.1-0.1,0.2-0.2
		c0.1,0.1,0.2,0.1,0.2,0.2c0.1,0.3,0.2,0.7,0.3,1c0.1,0.2,0.2,0.3,0.4,0.3c0.4,0,0.7,0,1.1,0c0.1,0,0.2,0.1,0.3,0.1
		c0,0.1-0.1,0.2-0.2,0.2c-0.3,0.2-0.6,0.4-0.9,0.6c-0.2,0.1-0.2,0.2-0.1,0.4c0.1,0.3,0.2,0.7,0.3,1c0,0.1,0,0.2,0,0.3
		c-0.1,0-0.2,0-0.3-0.1c-0.3-0.2-0.6-0.4-0.8-0.6c-0.2-0.1-0.3-0.1-0.4,0c-0.3,0.2-0.6,0.4-0.9,0.6c-0.1,0.1-0.2,0.1-0.3,0.1
		c0-0.1-0.1-0.2,0-0.3c0.1-0.4,0.2-0.7,0.3-1.1c0.1-0.2,0-0.3-0.1-0.4c-0.3-0.2-0.6-0.4-0.9-0.7c-0.1,0-0.1-0.2-0.1-0.2
		c0-0.1,0.1-0.1,0.2-0.1C28.9,25.3,29.1,25.3,29.3,25.3C29.3,25.3,29.3,25.3,29.3,25.3z"/>
</g>
<g>
</g>
<g>
</g>
<g>
</g>
<g>
</g>
<g>
</g>
<g>
</g>
</svg>
