<?xml version="1.0" encoding="utf-8"?>
<!-- Generator: Adobe Illustrator 26.0.2, SVG Export Plug-In . SVG Version: 6.00 Build 0)  -->
<svg version="1.1" id="Layer_1" xmlns="http://www.w3.org/2000/svg" xmlns:xlink="http://www.w3.org/1999/xlink" x="0px" y="0px"
	 viewBox="0 0 78.7 74.4" style="enable-background:new 0 0 78.7 74.4;" xml:space="preserve">
<style type="text/css">
	.st0{fill:#9B9DA0;}
</style>
<g>
	<path class="st0" d="M53.9,37.2c0,0.3-0.2,0.5-0.5,0.6c-2.9,1.3-5.7,2.6-8.6,3.9c-1.5,0.7-2.9,1.3-4.4,2c-0.3,0.1-0.6,0.2-0.9,0
		c-0.3-0.3-0.3-0.5-0.1-1c0.9-1.7,1.8-3.4,2.7-5c0.2-0.4,0.2-0.7,0-1c-0.9-1.7-1.8-3.4-2.7-5c-0.1-0.3-0.2-0.5-0.1-0.8
		c0.2-0.3,0.5-0.4,0.9-0.2c1.4,0.6,2.7,1.2,4.1,1.8c3,1.4,6,2.7,9,4.1C53.7,36.7,53.9,36.9,53.9,37.2z"/>
	<path class="st0" d="M20.4,17.8c0.1,0,0.2,0.1,0.3,0.1c3.2,1.4,6.4,2.8,9.6,4.2c0.2,0.1,0.5,0.2,0.5,0.5c0,0.3-0.2,0.4-0.5,0.5
		c-3.2,1.4-6.4,2.8-9.6,4.2c-0.3,0.1-0.5,0.2-0.7,0c-0.2-0.3-0.1-0.5,0-0.8c0.6-1.2,1.2-2.4,1.9-3.5c0.2-0.3,0.2-0.6,0-0.9
		c-0.6-1.2-1.3-2.4-1.9-3.6C19.8,18.2,20,17.7,20.4,17.8z"/>
	<path class="st0" d="M30.8,37.2c0,0.3-0.2,0.4-0.5,0.5c-1.8,0.8-3.5,1.6-5.3,2.3c-1.4,0.6-2.8,1.2-4.2,1.9c-0.3,0.1-0.5,0.3-0.8,0
		c-0.2-0.3-0.1-0.5,0-0.8c0.6-1.1,1.2-2.2,1.8-3.3c0.2-0.4,0.2-0.8,0-1.2c-0.6-1.1-1.2-2.2-1.8-3.4c-0.1-0.3-0.3-0.5,0-0.8
		c0.2-0.2,0.5-0.1,0.7,0c3.2,1.4,6.4,2.8,9.6,4.2C30.6,36.8,30.8,36.9,30.8,37.2z"/>
	<path class="st0" d="M30.8,51.8c0,0.3-0.2,0.4-0.5,0.5c-1.8,0.8-3.5,1.5-5.3,2.3c-1.4,0.6-2.9,1.3-4.3,1.9c-0.2,0.1-0.5,0.2-0.7,0
		c-0.2-0.2-0.1-0.5,0-0.7c0.6-1.2,1.2-2.4,1.9-3.5c0.2-0.3,0.2-0.6,0-0.9c-0.6-1.2-1.3-2.4-1.9-3.6c-0.1-0.2-0.1-0.4,0-0.6
		c0.1-0.3,0.4-0.3,0.7-0.2c1.7,0.7,3.4,1.5,5,2.2c1.5,0.7,3.1,1.4,4.6,2C30.6,51.4,30.8,51.5,30.8,51.8z"/>
	<path class="st0" d="M48.9,23.2c-0.9,0-1.8,0-2.7,0c-0.2,0-0.5-0.1-0.6-0.2c-0.1-0.1-0.1-0.4-0.1-0.6c0.1-0.3,0.3-0.4,0.6-0.4
		c0.8,0,1.6,0,2.4,0c0.1,0,0.3,0,0.4,0c0-0.1,0-0.2,0-0.3c0-0.5,0.5-0.8,0.9-0.6c0.5,0.3,1,0.6,1.5,1c0.4,0.3,0.3,0.7,0,1
		c-0.5,0.3-0.9,0.6-1.4,0.9c-0.2,0.1-0.5,0.1-0.6,0C48.9,23.9,48.8,23.6,48.9,23.2z"/>
	<path class="st0" d="M56,29.3c-0.7,0-1.5,0-2.3,0c-0.1,0-0.3,0-0.4,0c-0.4,0-0.6-0.3-0.6-0.6c0-0.4,0.2-0.6,0.6-0.6
		c0.8,0,1.6,0,2.4,0c0.1,0,0.3,0,0.4,0c0.1-0.2,0.1-0.5,0.2-0.6c0.2-0.3,0.5-0.4,0.8-0.2c0.5,0.3,0.9,0.6,1.4,0.9
		c0.4,0.3,0.4,0.8,0,1c-0.4,0.3-0.8,0.5-1.2,0.8c-0.3,0.2-0.6,0.4-0.9,0.1C56.3,29.9,56.2,29.6,56,29.3z"/>
	<path class="st0" d="M56.2,46.6c-0.9,0-1.7,0-2.5,0c-0.1,0-0.3,0-0.4,0c-0.4,0-0.6-0.3-0.6-0.6c0-0.3,0.3-0.6,0.6-0.6
		c0.8,0,1.6,0,2.4,0c0.1,0,0.3,0,0.4,0c0-0.2,0-0.3,0-0.4c0.1-0.4,0.5-0.6,0.9-0.4c0.5,0.3,0.9,0.6,1.3,0.9c0.5,0.3,0.5,0.8,0,1.1
		c-0.4,0.3-0.8,0.5-1.2,0.8c-0.3,0.2-0.5,0.3-0.8,0.1C56.2,47.3,56.1,47,56.2,46.6z"/>
	<path class="st0" d="M48.9,51.2c-0.1-0.4,0-0.7,0.4-0.9c0.2-0.1,0.4,0,0.6,0.1c0.4,0.2,0.9,0.5,1.3,0.8c0.5,0.3,0.5,0.8,0,1.1
		c-0.4,0.3-0.8,0.5-1.2,0.8c-0.2,0.2-0.5,0.3-0.8,0.1c-0.3-0.2-0.4-0.4-0.2-0.8c-0.4,0-0.7,0-1.1,0c-0.6,0-1.2,0-1.8,0
		c-0.4,0-0.6-0.3-0.6-0.6c0-0.4,0.2-0.6,0.6-0.6C47,51.2,48,51.2,48.9,51.2z"/>
	<path class="st0" d="M32.8,30.5c-0.8,0-1.7,0-2.5,0c-0.1,0-0.3,0-0.4,0c-0.4,0-0.6-0.3-0.6-0.6c0-0.3,0.3-0.6,0.6-0.6
		c0.8,0,1.6,0,2.4,0c0.1,0,0.3,0,0.4,0c0,0-0.1-0.1-0.1-0.1c0.1-0.2,0.2-0.5,0.4-0.7c0.1-0.1,0.5-0.1,0.7,0c0.5,0.2,0.9,0.6,1.4,0.9
		c0.4,0.3,0.4,0.8,0,1.1c-0.4,0.3-0.8,0.5-1.2,0.8c-0.3,0.2-0.5,0.3-0.8,0.1C32.8,31.2,32.7,30.9,32.8,30.5z"/>
	<path class="st0" d="M32.8,45.1c-0.9,0-1.7,0-2.6,0c-0.1,0-0.3,0-0.4,0c-0.3-0.1-0.5-0.3-0.5-0.6c0-0.3,0.3-0.5,0.6-0.5
		c0.8,0,1.5,0,2.3,0c0.2,0,0.3,0,0.5,0c0-0.1,0-0.2,0-0.3c0-0.5,0.5-0.8,0.9-0.6c0.5,0.3,1,0.6,1.5,1c0.4,0.2,0.4,0.7,0,1
		c-0.5,0.3-1,0.7-1.5,1C33.1,46.2,32.7,45.8,32.8,45.1z"/>
</g>
<g>
</g>
<g>
</g>
<g>
</g>
<g>
</g>
<g>
</g>
<g>
</g>
</svg>
