<?xml version="1.0" encoding="utf-8"?>
<!-- Generator: Adobe Illustrator 26.0.2, SVG Export Plug-In . SVG Version: 6.00 Build 0)  -->
<svg version="1.1" id="Layer_1" xmlns="http://www.w3.org/2000/svg" xmlns:xlink="http://www.w3.org/1999/xlink" x="0px" y="0px"
	 viewBox="0 0 78.7 74.4" style="enable-background:new 0 0 78.7 74.4;" xml:space="preserve">
<style type="text/css">
	.st0{fill:#9B9DA0;}
</style>
<g>
	<path class="st0" d="M40.2,43.9c-1.1,0-2.2,0-3.3,0c-1.2,0-2.4,0-3.6-0.2c-0.5-0.1-1.2-0.5-1.2-0.9c0-0.5,0.4-1.1,0.8-1.4
		c0.5-0.3,1.2-0.6,1.8-0.5c2.9,0.2,5.6-0.4,8.3-1.5c1.6-0.6,3.5-0.7,5.2-0.9c0.3,0,0.8,0.4,0.8,0.6c0.1,3.2,0,6.4,0,9.4
		c-3.6,1.2-7.1,2.3-10.5,3.5c-1.2,0.4-2.2,0.3-3.3-0.3c-3.9-2.2-7.9-4.4-11.8-6.6c-1.3-0.7-1.7-1.6-1.3-2.7c0.5-1.3,1.5-1.7,2.9-1.1
		c1.8,0.8,3.6,1.6,5.4,2.5c3,1.6,6.1,1.6,9.2,0.5c0.1-0.1,0.3-0.1,0.4-0.2C40.1,44.1,40.1,44,40.2,43.9z"/>
	<path class="st0" d="M31.3,39c-2.8-3-6-5.6-7.6-9.5c-0.4-1-0.7-2.3-0.6-3.4c0.1-1.8,1.2-3.2,3.1-3.7c1.8-0.5,3.5-0.1,4.7,1.5
		c0.1,0.2,0.3,0.3,0.2,0.3c1.2-0.7,2.3-1.6,3.5-1.8c3-0.6,5.6,2,5,5c-0.3,1.6-1,3.1-1.8,4.5c-0.8,1.4-2,2.6-3.1,3.8
		C33.7,36.7,32.5,37.8,31.3,39z"/>
	<path class="st0" d="M49.7,43.6c0-1.9,0-3.9,0-5.8c0-1.3,0.4-1.6,1.7-1.7c1.3,0,2.6,0,4,0c1,0,1.4,0.5,1.4,1.4c0,4.1,0,8.2,0,12.3
		c0,1-0.5,1.5-1.5,1.5c-1.4,0-2.7,0-4.1,0c-1.1,0-1.5-0.6-1.5-1.6C49.7,47.6,49.7,45.6,49.7,43.6z"/>
</g>
<g>
</g>
<g>
</g>
<g>
</g>
<g>
</g>
<g>
</g>
<g>
</g>
</svg>
