<?xml version="1.0" encoding="utf-8"?>
<!-- Generator: Adobe Illustrator 26.0.2, SVG Export Plug-In . SVG Version: 6.00 Build 0)  -->
<svg version="1.1" id="Layer_1" xmlns="http://www.w3.org/2000/svg" xmlns:xlink="http://www.w3.org/1999/xlink" x="0px" y="0px"
	 viewBox="0 0 78.7 74.4" style="enable-background:new 0 0 78.7 74.4;" xml:space="preserve">
<style type="text/css">
	.st0{fill:#9A9C9F;}
</style>
<g>
	<path class="st0" d="M52.2,58.9c-2,0-3.9,0-5.9,0c-0.1-1-0.2-2-0.3-3c-0.4-4.4-0.7-8.9-1.1-13.3c0-0.5-0.2-0.7-0.7-0.9
		c-1.2-0.5-1.9-1.4-1.8-2.8c0-3.8,0-7.5,0-11.3c0-2.1,1.2-3.3,3.3-3.3c2.1,0,4.2,0,6.3,0c0.6,0,1.3,0,1.9,0.2
		c1.4,0.4,2.1,1.4,2.1,2.9c0,3.8,0,7.7,0,11.5c0,1.3-0.6,2.2-1.8,2.7c-0.5,0.2-0.7,0.5-0.7,1c-0.4,5.1-0.8,10.3-1.3,15.4
		C52.3,58.3,52.2,58.6,52.2,58.9z"/>
	<path class="st0" d="M32.8,36.8c1.6,0,3.1,0,4.5,0c0.2,0,0.5,0,0.7,0c0.5,0,0.7,0.2,0.7,0.6c0,0.4-0.2,0.6-0.7,0.6
		c-1.1,0-2.3,0-3.4,0c-0.6,0-1.2,0-1.8,0c0,0.7,0,1.3,0,1.9c0,4.9,0,9.8,0,14.7c0,0.7-0.1,0.9-0.9,0.9c-0.7,0-1.3,0-2,0
		c-0.3,0-0.4,0.1-0.5,0.4c-0.5,1.6-1.9,2.6-3.5,2.5c-1.5-0.1-2.8-1.2-3.1-2.8c-0.3-1.6,0.5-3.1,1.9-3.8c1.9-0.9,4.2,0.1,4.8,2.2
		c0.1,0.3,0.2,0.4,0.5,0.4c0.5,0,1.1,0,1.7,0c0-3.5,0-7,0-10.5c-0.6,0-1.3,0-1.9,0c-0.1,0-0.2,0.2-0.3,0.3c-0.5,1.4-1.4,2.2-2.8,2.5
		c-1.4,0.2-2.6-0.3-3.4-1.5c-0.8-1.2-0.8-2.5-0.1-3.7c0.8-1.2,1.9-1.8,3.4-1.6c1.4,0.2,2.4,1,2.8,2.4c0.1,0.3,0.2,0.5,0.6,0.4
		c0.5,0,1.1,0,1.6,0c0-3.5,0-7,0-10.5c-0.7,0-1.3,0-1.9,0c-0.1,0-0.2,0.3-0.3,0.4c-0.7,2.2-3.2,3.1-5.2,1.9
		c-1.3-0.8-1.9-2.4-1.5-3.8c0.4-1.5,1.7-2.5,3.2-2.5c1.5,0,2.9,0.9,3.3,2.3c0.1,0.4,0.3,0.6,0.7,0.5c0.5,0,1,0,1.5,0
		c0-3.5,0-6.9,0-10.5c-0.6,0-1.3,0-1.9,0c-0.1,0-0.2,0.2-0.3,0.4c-0.7,2.2-3.1,3.1-5.1,2c-1.3-0.8-2-2.3-1.6-3.8
		c0.4-1.5,1.6-2.6,3.2-2.7c1.5-0.1,2.9,0.8,3.3,2.3c0.2,0.5,0.4,0.7,0.9,0.6c0.6,0,1.2,0,1.7,0c0.7,0,0.8,0.2,0.8,0.8
		c0,5.1,0,10.1,0,15.2C32.8,35.9,32.8,36.3,32.8,36.8z"/>
	<path class="st0" d="M49.3,22.9c-2.1,0-3.7-1.6-3.7-3.7c0-2,1.6-3.7,3.7-3.7c2,0,3.7,1.7,3.7,3.7C52.9,21.3,51.3,22.9,49.3,22.9z"
		/>
</g>
<g>
</g>
<g>
</g>
<g>
</g>
<g>
</g>
<g>
</g>
<g>
</g>
</svg>
