<?xml version="1.0" encoding="utf-8"?>
<!-- Generator: Adobe Illustrator 26.0.2, SVG Export Plug-In . SVG Version: 6.00 Build 0)  -->
<svg version="1.1" id="Layer_1" xmlns="http://www.w3.org/2000/svg" xmlns:xlink="http://www.w3.org/1999/xlink" x="0px" y="0px"
	 viewBox="0 0 78.7 74.4" style="enable-background:new 0 0 78.7 74.4;" xml:space="preserve">
<style type="text/css">
	.st0{fill:#9A9C9F;}
</style>
<g>
	<path class="st0" d="M41.4,35.4c-0.3,0.3-0.5,0.5-0.9,0.9c0.3,0.2,0.6,0.4,0.9,0.6c2.4,2.3,4.7,4.7,7.1,7.1
		c0.8,0.8,0.9,1.8,0.2,2.5c-0.7,0.7-1.8,0.6-2.6-0.2c-2.4-2.4-4.7-4.7-7.1-7.1c-0.2-0.2-0.4-0.5-0.6-0.8c-0.3,0.3-0.5,0.6-0.7,0.9
		c0.8,0.8,1.7,1.7,2.5,2.5c1.5,1.5,3,3,4.5,4.5c0.8,0.8,0.8,1.8,0.1,2.5c-0.7,0.7-1.7,0.7-2.5-0.1c-2.3-2.3-4.6-4.6-7-7
		c-0.2,0.2-0.5,0.4-0.7,0.7c2,2,4,4,6,6c0.3,0.3,0.6,0.7,0.7,1.1c0.2,0.7-0.1,1.3-0.7,1.7c-0.6,0.4-1.3,0.3-1.9-0.1
		c-0.3-0.3-0.6-0.6-0.9-0.9c-3.7-3.7-7.5-7.5-11.2-11.2c-2.6-2.6-3.5-5.7-2.4-9.2c1.1-3.5,3.5-5.7,7.1-6.4c2.7-0.5,5.1,0.1,7.3,1.8
		c-0.1,0.2-0.3,0.3-0.4,0.5c-1.5,1.4-2.9,2.9-4.4,4.3c-1.2,1.2-1.2,2.7-0.1,3.8c1.1,1.1,2.6,1,3.8-0.1c1.1-1.1,2.2-2.2,3.3-3.3
		c0.4-0.4,0.8-0.7,1.3-0.4c0.6,0.2,0.7,0.7,0.6,1.2c-0.1,0.9,0.3,1.6,0.9,2.2c2.2,2.1,4.3,4.3,6.5,6.5c0.6,0.6,0.8,1.2,0.5,1.9
		c-0.4,1.2-1.9,1.4-2.8,0.5c-2-2-4-4-6-6C41.8,35.9,41.6,35.7,41.4,35.4z"/>
	<path class="st0" d="M51.5,39.5c-2.4-2.3-4.7-4.7-7.1-7c-0.5-0.5-0.7-0.9-0.7-1.6c0.1-0.9-0.3-1.7-1.2-2c-0.9-0.4-1.7-0.1-2.4,0.6
		c-1.1,1.1-2.2,2.2-3.3,3.3c-0.9,0.9-1.8,0.9-2.5,0.2c-0.7-0.7-0.7-1.7,0.2-2.5c1.6-1.6,3.3-3.2,4.9-4.8c2.5-2.4,5.5-3.1,8.8-2.2
		c3.3,0.9,5.5,3.2,6.4,6.5C55.7,33.8,54.4,37,51.5,39.5z"/>
</g>
<g>
</g>
<g>
</g>
<g>
</g>
<g>
</g>
<g>
</g>
<g>
</g>
</svg>
