<?xml version="1.0" encoding="utf-8"?>
<!-- Generator: Adobe Illustrator 26.0.3, SVG Export Plug-In . SVG Version: 6.00 Build 0)  -->
<svg version="1.1" id="Capa_1" xmlns="http://www.w3.org/2000/svg" xmlns:xlink="http://www.w3.org/1999/xlink" x="0px" y="0px"
	 viewBox="0 0 425.2 425.2" style="enable-background:new 0 0 425.2 425.2;" xml:space="preserve">
<style type="text/css">
	.st0{fill:#F8BB92;}
	.st1{fill:#D9D9D9;}
	.st2{fill:#FFFFFF;}
	.st3{fill:#262626;}
	.st4{fill:#141414;}
	.st5{fill:#F1AD81;}
	.st6{fill:#04546C;}
	.st7{fill:#E7E6E6;}
	.st8{opacity:0.1;fill:#020203;}
	.st9{fill:#2A292A;}
	.st10{fill:#020203;}
	.st11{fill:#503727;}
</style>
<g>
	<path class="st0" d="M366.52,363.15c-16.43-26.98-70.97-27.75-94.48-27.59c-15.12,0-20.61-14.91-20.29-29.92
		c-11.37,8.33-24.48,13.09-38.44,13.09c-13.97,0-27.08-4.76-38.45-13.1c0.32,15.02-5.14,29.91-20.29,29.93
		c-23.5-0.16-78.04,0.61-94.47,27.59c-16.43,26.98-25.23,60.71-25.23,60.71h356.88C391.76,423.85,382.95,390.13,366.52,363.15z"/>
	<path class="st1" d="M366.54,363.14c-16.43-26.98-70.98-27.76-94.48-27.6c-7.46,0-12.57-3.63-15.8-9.12
		c-41.99,21.96-76.68,5.46-85.95,0.15c-3.23,5.4-8.32,8.96-15.72,8.97c-23.5-0.16-78.05,0.61-94.48,27.6
		c-16.43,26.98-25.23,60.71-25.23,60.71h356.91C391.77,423.85,382.97,390.12,366.54,363.14z"/>
	<path class="st2" d="M366.52,363.17c-16.51-27.11-71.31-27.88-94.92-27.72c-7.5,0-12.63-3.65-15.88-9.16
		c-42.19,22.06-77.03,5.49-86.35,0.15c-3.25,5.42-8.36,9-15.79,9.01c-23.61-0.16-78.41,0.62-94.92,27.72
		c-16.51,27.11-25.35,60.99-25.35,60.99h358.55C391.87,424.16,383.03,390.27,366.52,363.17z"/>
	<g>
		<path class="st3" d="M213.07,124.34c0,1.77-1.44,3.21-3.21,3.21c-1.77,0-3.21-1.44-3.21-3.21c0-1.77,1.44-3.21,3.21-3.21
			C211.63,121.13,213.07,122.57,213.07,124.34z"/>
		<path class="st4" d="M210.92,124.34c0,0.59-0.48,1.06-1.06,1.06c-0.59,0-1.06-0.48-1.06-1.06c0-0.59,0.48-1.06,1.06-1.06
			C210.44,123.28,210.92,123.76,210.92,124.34z"/>
	</g>
	<path class="st0" d="M253.43,293.74c12.4-11.22,21.69-27.44,27.69-45.63c3.63,4.99,9.14-0.04,9.81-4.69
		c-0.06-7.14,13.19-39.49-1.78-38.24c0,0-0.07,0.15-0.19,0.4C299.12,67.93,127.4,68.1,137.68,205.63c-0.14-0.29-0.22-0.46-0.22-0.46
		c-14.98-1.2-1.72,31.05-1.78,38.24c0.67,4.66,6.2,9.7,9.83,4.67c5.99,18.21,15.29,34.43,27.7,45.66
		c11.75,9.1,25.46,14.33,40.11,14.33C227.96,308.08,241.68,302.85,253.43,293.74z"/>
	<path class="st5" d="M251.76,305.63c0.08-3.96,0.56-7.92,1.39-11.62c0.1-0.09,0.19-0.18,0.28-0.27
		c-11.75,9.1-25.46,14.34-40.11,14.34c-14.65,0-28.36-5.23-40.11-14.33c0.09,0.09,0.19,0.18,0.28,0.26c0.82,3.7,1.3,7.66,1.38,11.62
		c11.37,8.33,24.48,13.1,38.45,13.1C227.28,318.72,240.39,313.96,251.76,305.63z"/>
	<polygon class="st6" points="194.32,424.41 207.65,345.58 218.64,345.58 230.87,424.41 	"/>
	<polygon class="st7" points="174.22,315.19 213.32,337.37 194.41,364.73 162.48,333.41 	"/>
	<polygon class="st7" points="252.4,315.19 213.3,337.37 230.78,364.73 264.14,333.41 	"/>
	<path class="st6" d="M213.37,337.32l-11.94,17.3l0.49,0.38c6.65,5.19,16.03,5.03,22.51-0.38v0L213.37,337.32z"/>
	<path class="st8" d="M220.43,357.15c-4.66,2.15-10.06,2.2-14.76,0.11l-0.41,2.45c4.93,2.34,10.67,2.29,15.56-0.1L220.43,357.15z"/>
	<path class="st9" d="M366.54,363.08c-16.5-27.26-71.27-28.04-94.87-27.88c-4.1,0-7.49-1.11-10.26-3.01l-48.62,92.22L164,332.18
		c-2.77,1.91-6.17,3.02-10.28,3.03c-23.6-0.16-78.37,0.62-94.87,27.88c-16.5,27.26-25.34,61.33-25.34,61.33h358.37
		C391.87,424.41,383.04,390.34,366.54,363.08z"/>
	<polygon class="st10" points="174.45,313.7 150.2,346.63 162.33,354.66 147.33,369.52 212.79,424.41 171.57,335.38 	"/>
	<polygon class="st10" points="252.16,313.7 276.41,346.63 264.28,354.66 279.29,369.52 212.79,424.41 255.04,335.38 	"/>
	<path class="st11" d="M302.72,151.22c-5.2-42.09-41.83-65.17-94.28-67.23s-53.71,25.11-53.71,25.11
		c-54.12,11.11-30.81,61.33-30.81,61.33l18.73,51.45c9.99-2.88,7.08-39.1,18.73-70.8c7.29-19.81,30.18-14.15,46.33-7.13
		c10.27,4.47,21.24,7.04,32.36,8.33c27.87,3.24,32.31,32.24,34.98,51.48c1.22,8.81,7.06,18.11,7.06,18.11l7.1-15.57
		c5.34-11.69,9.41-23.94,11.88-36.55C302.46,162.9,303.31,156.02,302.72,151.22z"/>
</g>
</svg>
