<?xml version="1.0" encoding="utf-8"?>
<!-- Generator: Adobe Illustrator 26.0.2, SVG Export Plug-In . SVG Version: 6.00 Build 0)  -->
<svg version="1.1" id="Layer_1" xmlns="http://www.w3.org/2000/svg" xmlns:xlink="http://www.w3.org/1999/xlink" x="0px" y="0px"
	 viewBox="0 0 40.2 38" style="enable-background:new 0 0 40.2 38;" xml:space="preserve">
<style type="text/css">
	.st0{fill:#9B9DA0;}
</style>
<g id="ursbk6.tif_00000145760999990376180570000009979509181185850753_">
	<g>
		<path class="st0" d="M20.1,38c-5.9,0-11.9,0-17.8,0c-0.3,0-0.6,0-0.9-0.1c-1-0.2-1.4-0.8-1.3-1.8c0.7-4.4,2.5-8.1,5.6-11.3
			c1.4-1.4,2.9-2.6,4.6-3.5c0.3-0.2,0.6-0.2,0.9,0.1c2.8,2.5,6.1,3.7,9.8,3.5c3.1-0.2,5.9-1.3,8.2-3.4c0.4-0.3,0.6-0.4,1.1-0.1
			c5.4,3.2,8.7,7.9,9.9,14.1c0.1,0.3,0.1,0.7,0.1,1c0,0.8-0.4,1.4-1.2,1.5C38.7,38,38.4,38,38,38C32.1,38,26.1,38,20.1,38z"/>
		<path class="st0" d="M20.2,0c6.2,0,11.5,5.2,11.4,11.5c0,6.4-5.4,11.5-11.5,11.4c-6.1,0-11.5-5.1-11.4-11.5
			C8.7,5.1,13.9-0.1,20.2,0z"/>
	</g>
</g>
<g>
</g>
<g>
</g>
<g>
</g>
<g>
</g>
<g>
</g>
<g>
</g>
</svg>
