<?xml version="1.0" encoding="utf-8"?>
<!-- Generator: Adobe Illustrator 26.0.2, SVG Export Plug-In . SVG Version: 6.00 Build 0)  -->
<svg version="1.1" id="Layer_1" xmlns="http://www.w3.org/2000/svg" xmlns:xlink="http://www.w3.org/1999/xlink" x="0px" y="0px"
	 viewBox="0 0 50.1 50.1" style="enable-background:new 0 0 50.1 50.1;" xml:space="preserve">
<style type="text/css">
	.st0{fill:#00AEEF;}
	.st1{fill:#F2F3F3;}
</style>
<circle class="st0" cx="25.1" cy="25.1" r="25.1"/>
<path class="st1" d="M38.7,31c-0.3,1.6-1.3,2.4-2.9,2.4c-6.1,0-12.3,0-18.4,0c-0.3,0-0.6,0.1-0.8,0.3c-1.6,1.6-3.3,3.2-4.9,4.9
	c0-0.1-0.1-0.1-0.2-0.1c0-2.4,0-4.7,0-7.1c0-5.8,0-11.5,0-17.3c0-0.1,0-0.3,0-0.4c0,0,0-0.1,0-0.1c0.6-1.5,1.4-2,3-2
	c7.1,0,14.2,0,21.3,0c1.6,0,2.6,0.8,3,2.4C38.7,19.6,38.7,25.3,38.7,31z M25.1,17c-2.6,0-5.1,0-7.7,0c-0.4,0-0.5,0.1-0.5,0.5
	c0,0.6,0,1.2,0,1.8c0,0.3,0.1,0.4,0.4,0.4c1,0,2,0,3,0c4.1,0,8.3,0,12.4,0c0.5,0,0.6-0.1,0.6-0.6c0-0.6,0-1.1,0-1.7
	c0-0.4-0.1-0.5-0.5-0.5C30.2,17,27.6,17,25.1,17z M22.3,27.9c1.7,0,3.4,0,5,0c0.3,0,0.4-0.1,0.4-0.4c0-0.7,0-1.3,0-2
	c0-0.3-0.1-0.3-0.3-0.3c-3.4,0-6.8,0-10.2,0c-0.3,0-0.3,0.1-0.3,0.3c0,0.6,0,1.3,0,1.9c0,0.4,0.1,0.5,0.5,0.5
	C19,27.9,20.7,27.9,22.3,27.9z M25.1,21.1c-2.6,0-5.2,0-7.8,0c-0.3,0-0.5,0.1-0.5,0.4c0,0.6,0,1.2,0,1.8c0,0.4,0.1,0.5,0.5,0.5
	c2.6,0,5.2,0,7.8,0c2.5,0,4.9,0,7.4,0c0.5,0,0.6-0.1,0.6-0.6c0-0.5,0-1.1,0-1.6c0-0.4-0.1-0.5-0.5-0.5
	C30.2,21.1,27.7,21.1,25.1,21.1z"/>
<g>
</g>
<g>
</g>
<g>
</g>
<g>
</g>
<g>
</g>
<g>
</g>
</svg>
